# Blender 5.2.1 LTS
# www.blender.org
mtllib pill.mtl
o Sphere
v 0.000000 1.000000 0.000000
v 0.000000 0.195090 -0.980785
v 0.000000 0.000000 -1.000000
v 0.000000 -0.195090 -0.980785
v 0.000000 -0.555570 -0.831470
v 0.000000 -1.000000 0.000000
v 0.038060 0.980785 -0.191342
v 0.191342 0.195090 -0.961940
v 0.195090 0.000000 -0.980785
v 0.191342 -0.195090 -0.961940
v 0.180240 -0.382683 -0.906127
v 0.162212 -0.555570 -0.815493
v 0.137950 -0.707107 -0.693520
v 0.108386 -0.831470 -0.544895
v 0.074658 -0.923880 -0.375330
v 0.038060 -0.980785 -0.191342
v 0.074658 0.980785 -0.180240
v 0.375330 0.195090 -0.906127
v 0.382683 0.000000 -0.923879
v 0.375330 -0.195090 -0.906127
v 0.353553 -0.382683 -0.853553
v 0.318190 -0.555570 -0.768178
v 0.270598 -0.707107 -0.653281
v 0.212608 -0.831470 -0.513280
v 0.146447 -0.923880 -0.353553
v 0.074658 -0.980785 -0.180240
v 0.108386 0.980785 -0.162212
v 0.544895 0.195090 -0.815493
v 0.555570 0.000000 -0.831469
v 0.544895 -0.195090 -0.815493
v 0.513280 -0.382683 -0.768178
v 0.461940 -0.555570 -0.691342
v 0.392847 -0.707107 -0.587938
v 0.308658 -0.831470 -0.461940
v 0.212608 -0.923880 -0.318190
v 0.108386 -0.980785 -0.162212
v 0.137950 0.980785 -0.137950
v 0.693520 0.195090 -0.693520
v 0.707107 0.000000 -0.707107
v 0.693520 -0.195090 -0.693520
v 0.653281 -0.382683 -0.653281
v 0.587938 -0.555570 -0.587938
v 0.500000 -0.707107 -0.500000
v 0.392847 -0.831470 -0.392847
v 0.270598 -0.923880 -0.270598
v 0.137950 -0.980785 -0.137950
v 0.162212 0.980785 -0.108386
v 0.815493 0.195090 -0.544895
v 0.831470 0.000000 -0.555570
v 0.815493 -0.195090 -0.544895
v 0.768178 -0.382683 -0.513280
v 0.691342 -0.555570 -0.461940
v 0.587938 -0.707107 -0.392847
v 0.461940 -0.831470 -0.308658
v 0.318190 -0.923880 -0.212608
v 0.162212 -0.980785 -0.108386
v 0.180240 0.980785 -0.074658
v 0.906127 0.195090 -0.375330
v 0.923879 0.000000 -0.382683
v 0.906127 -0.195090 -0.375330
v 0.853553 -0.382683 -0.353553
v 0.768178 -0.555570 -0.318190
v 0.653281 -0.707107 -0.270598
v 0.513280 -0.831470 -0.212607
v 0.353553 -0.923880 -0.146447
v 0.180240 -0.980785 -0.074658
v 0.191342 0.980785 -0.038060
v 0.961940 0.195090 -0.191342
v 0.980785 0.000000 -0.195090
v 0.961940 -0.195090 -0.191342
v 0.906127 -0.382683 -0.180240
v 0.815493 -0.555570 -0.162212
v 0.693520 -0.707107 -0.137950
v 0.544895 -0.831470 -0.108386
v 0.375330 -0.923880 -0.074658
v 0.191342 -0.980785 -0.038060
v 0.195090 0.980785 0.000000
v 0.980785 0.195090 0.000000
v 1.000000 0.000000 0.000000
v 0.980785 -0.195090 0.000000
v 0.923879 -0.382683 -0.000000
v 0.831469 -0.555570 0.000000
v 0.707107 -0.707107 -0.000000
v 0.555570 -0.831470 0.000000
v 0.382683 -0.923880 0.000000
v 0.195090 -0.980785 0.000000
v 0.191342 0.980785 0.038060
v 0.961940 0.195090 0.191342
v 0.980785 0.000000 0.195090
v 0.961940 -0.195090 0.191342
v 0.906127 -0.382683 0.180240
v 0.815493 -0.555570 0.162212
v 0.693520 -0.707107 0.137950
v 0.544895 -0.831470 0.108386
v 0.375330 -0.923880 0.074658
v 0.191342 -0.980785 0.038060
v 0.180240 0.980785 0.074658
v 0.906127 0.195090 0.375330
v 0.923879 0.000000 0.382683
v 0.906127 -0.195090 0.375330
v 0.853553 -0.382683 0.353553
v 0.768178 -0.555570 0.318190
v 0.653281 -0.707107 0.270598
v 0.513280 -0.831470 0.212608
v 0.353553 -0.923880 0.146447
v 0.180240 -0.980785 0.074658
v 0.162212 0.980785 0.108386
v 0.815493 0.195090 0.544895
v 0.831469 0.000000 0.555570
v 0.815493 -0.195090 0.544895
v 0.768178 -0.382683 0.513280
v 0.691341 -0.555570 0.461940
v 0.587938 -0.707107 0.392847
v 0.461940 -0.831470 0.308658
v 0.318190 -0.923880 0.212608
v 0.162212 -0.980785 0.108386
v 0.137950 0.980785 0.137950
v 0.693520 0.195090 0.693520
v 0.707106 0.000000 0.707107
v 0.693520 -0.195090 0.693520
v 0.653281 -0.382683 0.653281
v 0.587938 -0.555570 0.587938
v 0.500000 -0.707107 0.500000
v 0.392847 -0.831470 0.392847
v 0.270598 -0.923880 0.270598
v 0.137950 -0.980785 0.137950
v 0.108386 0.980785 0.162212
v 0.544895 0.195090 0.815493
v 0.555570 0.000000 0.831469
v 0.544895 -0.195090 0.815493
v 0.513280 -0.382683 0.768178
v 0.461940 -0.555570 0.691342
v 0.392847 -0.707107 0.587938
v 0.308658 -0.831470 0.461940
v 0.212607 -0.923880 0.318190
v 0.108386 -0.980785 0.162212
v 0.074658 0.980785 0.180240
v 0.375330 0.195090 0.906127
v 0.382683 0.000000 0.923879
v 0.375330 -0.195090 0.906127
v 0.353553 -0.382683 0.853553
v 0.318189 -0.555570 0.768178
v 0.270598 -0.707107 0.653281
v 0.212607 -0.831470 0.513280
v 0.146447 -0.923880 0.353553
v 0.074658 -0.980785 0.180240
v 0.038060 0.980785 0.191342
v 0.191342 0.195090 0.961939
v 0.195090 0.000000 0.980785
v 0.191342 -0.195090 0.961939
v 0.180240 -0.382683 0.906127
v 0.162212 -0.555570 0.815493
v 0.137950 -0.707107 0.693520
v 0.108386 -0.831470 0.544895
v 0.074658 -0.923880 0.375330
v 0.038060 -0.980785 0.191342
v -0.000000 0.980785 0.195090
v -0.000000 0.195090 0.980785
v -0.000000 0.000000 0.999999
v -0.000000 -0.195090 0.980785
v 0.000000 -0.382683 0.923879
v -0.000000 -0.555570 0.831469
v -0.000000 -0.707107 0.707107
v -0.000000 -0.831470 0.555570
v -0.000000 -0.923880 0.382683
v -0.000000 -0.980785 0.195090
v -0.038060 0.980785 0.191342
v -0.191342 0.195090 0.961939
v -0.195091 0.000000 0.980785
v -0.191342 -0.195090 0.961939
v -0.180240 -0.382683 0.906127
v -0.162212 -0.555570 0.815493
v -0.137950 -0.707107 0.693520
v -0.108386 -0.831470 0.544895
v -0.074658 -0.923880 0.375330
v -0.038060 -0.980785 0.191342
v -0.074658 0.980785 0.180240
v -0.375330 0.195090 0.906127
v -0.382683 0.000000 0.923879
v -0.375330 -0.195090 0.906127
v -0.353553 -0.382683 0.853553
v -0.318190 -0.555570 0.768177
v -0.270598 -0.707107 0.653281
v -0.212608 -0.831470 0.513280
v -0.146447 -0.923880 0.353553
v -0.074658 -0.980785 0.180240
v -0.108386 0.980785 0.162212
v -0.544895 0.195090 0.815493
v -0.555570 0.000000 0.831469
v -0.544895 -0.195090 0.815493
v -0.513280 -0.382683 0.768178
v -0.461940 -0.555570 0.691341
v -0.392847 -0.707107 0.587938
v -0.308658 -0.831470 0.461939
v -0.212608 -0.923880 0.318190
v -0.108386 -0.980785 0.162212
v -0.137950 0.980785 0.137950
v -0.693520 0.195090 0.693520
v -0.707106 0.000000 0.707106
v -0.693520 -0.195090 0.693520
v -0.653281 -0.382683 0.653281
v -0.587938 -0.555570 0.587937
v -0.500000 -0.707107 0.500000
v -0.392847 -0.831470 0.392847
v -0.270598 -0.923880 0.270598
v -0.137950 -0.980785 0.137950
v -0.162212 0.980785 0.108386
v -0.815493 0.195090 0.544895
v -0.831469 0.000000 0.555569
v -0.815493 -0.195090 0.544895
v -0.768177 -0.382683 0.513280
v -0.691341 -0.555570 0.461939
v -0.587938 -0.707107 0.392847
v -0.461940 -0.831470 0.308658
v -0.318190 -0.923880 0.212607
v -0.162212 -0.980785 0.108386
v -0.180240 0.980785 0.074658
v -0.906127 0.195090 0.375330
v -0.923879 0.000000 0.382683
v -0.906127 -0.195090 0.375330
v -0.853553 -0.382683 0.353553
v -0.768177 -0.555570 0.318189
v -0.653281 -0.707107 0.270598
v -0.513280 -0.831470 0.212607
v -0.353553 -0.923880 0.146447
v -0.180240 -0.980785 0.074658
v -0.191342 0.980785 0.038060
v -0.961939 0.195090 0.191341
v -0.980784 0.000000 0.195090
v -0.961939 -0.195090 0.191341
v -0.906127 -0.382683 0.180240
v -0.815493 -0.555570 0.162211
v -0.693520 -0.707107 0.137950
v -0.544895 -0.831470 0.108386
v -0.375330 -0.923880 0.074658
v -0.191342 -0.980785 0.038060
v -0.195090 0.980785 -0.000000
v -0.980785 0.195090 -0.000000
v -0.999999 0.000000 -0.000000
v -0.980785 -0.195090 -0.000000
v -0.923879 -0.382683 -0.000000
v -0.831469 -0.555570 -0.000000
v -0.707107 -0.707107 -0.000000
v -0.555570 -0.831470 -0.000000
v -0.382683 -0.923880 -0.000000
v -0.195090 -0.980785 -0.000000
v -0.191342 0.980785 -0.038060
v -0.961939 0.195090 -0.191342
v -0.980784 0.000000 -0.195091
v -0.961939 -0.195090 -0.191342
v -0.906127 -0.382683 -0.180240
v -0.815493 -0.555570 -0.162212
v -0.693520 -0.707107 -0.137950
v -0.544895 -0.831470 -0.108386
v -0.375330 -0.923880 -0.074658
v -0.191342 -0.980785 -0.038060
v -0.180240 0.980785 -0.074658
v -0.906127 0.195090 -0.375330
v -0.923878 0.000000 -0.382683
v -0.906127 -0.195090 -0.375330
v -0.853553 -0.382683 -0.353553
v -0.768177 -0.555570 -0.318190
v -0.653281 -0.707107 -0.270598
v -0.513279 -0.831470 -0.212607
v -0.353553 -0.923880 -0.146447
v -0.180240 -0.980785 -0.074658
v -0.162212 0.980785 -0.108386
v -0.815493 0.195090 -0.544895
v -0.831468 0.000000 -0.555570
v -0.815493 -0.195090 -0.544895
v -0.768177 -0.382683 -0.513280
v -0.691341 -0.555570 -0.461940
v -0.587938 -0.707107 -0.392847
v -0.461939 -0.831470 -0.308658
v -0.318189 -0.923880 -0.212607
v -0.162212 -0.980785 -0.108386
v -0.137950 0.980785 -0.137950
v -0.693519 0.195090 -0.693520
v -0.707106 0.000000 -0.707106
v -0.693519 -0.195090 -0.693520
v -0.653281 -0.382683 -0.653281
v -0.587937 -0.555570 -0.587938
v -0.500000 -0.707107 -0.500000
v -0.392847 -0.831470 -0.392847
v -0.270598 -0.923880 -0.270598
v -0.137950 -0.980785 -0.137950
v -0.108386 0.980785 -0.162212
v -0.544895 0.195090 -0.815493
v -0.555569 0.000000 -0.831469
v -0.544895 -0.195090 -0.815493
v -0.513280 -0.382683 -0.768177
v -0.461939 -0.555570 -0.691341
v -0.392847 -0.707107 -0.587938
v -0.308658 -0.831470 -0.461939
v -0.212607 -0.923880 -0.318190
v -0.108386 -0.980785 -0.162212
v -0.074658 0.980785 -0.180240
v -0.375330 0.195090 -0.906127
v -0.382683 0.000000 -0.923879
v -0.375330 -0.195090 -0.906127
v -0.353553 -0.382683 -0.853553
v -0.318189 -0.555570 -0.768177
v -0.270598 -0.707107 -0.653281
v -0.212607 -0.831470 -0.513279
v -0.146446 -0.923880 -0.353553
v -0.074658 -0.980785 -0.180240
v -0.038060 0.980785 -0.191342
v -0.191341 0.195090 -0.961939
v -0.195090 0.000000 -0.980784
v -0.191341 -0.195090 -0.961939
v -0.180240 -0.382683 -0.906127
v -0.162211 -0.555570 -0.815493
v -0.137950 -0.707107 -0.693520
v -0.108386 -0.831470 -0.544895
v -0.074658 -0.923880 -0.375330
v -0.038060 -0.980785 -0.191342
v 0.000000 0.980785 -0.195090
v 0.000000 -0.382683 -0.923879
v 0.000000 -0.707107 -0.707107
v 0.000000 -0.831470 -0.555570
v 0.000000 -0.923880 -0.382683
v 0.000000 -0.980785 -0.195090
v 0.000000 1.000000 0.000000
v -0.000000 2.823442 -0.555570
v -0.000000 2.547543 -0.831470
v -0.000000 2.187063 -0.980785
v 0.038060 2.972758 -0.191342
v 0.074658 2.915852 -0.375330
v 0.108386 2.823442 -0.544895
v 0.137950 2.699079 -0.693520
v 0.162212 2.547543 -0.815493
v 0.180240 2.374656 -0.906128
v 0.191342 2.187063 -0.961940
v 0.074658 2.972758 -0.180240
v 0.146446 2.915852 -0.353554
v 0.212607 2.823442 -0.513280
v 0.270598 2.699079 -0.653282
v 0.318190 2.547543 -0.768178
v 0.353553 2.374656 -0.853553
v 0.375330 2.187063 -0.906128
v 0.108386 2.972758 -0.162212
v 0.212607 2.915852 -0.318190
v 0.308658 2.823442 -0.461940
v 0.392847 2.699079 -0.587938
v 0.461940 2.547543 -0.691342
v 0.513280 2.374656 -0.768178
v 0.544895 2.187063 -0.815493
v 0.137950 2.972758 -0.137950
v 0.270598 2.915852 -0.270598
v 0.392847 2.823442 -0.392848
v 0.500000 2.699079 -0.500000
v 0.587938 2.547543 -0.587938
v 0.653281 2.374656 -0.653282
v 0.693520 2.187063 -0.693520
v 0.162212 2.972758 -0.108386
v 0.318190 2.915852 -0.212608
v 0.461940 2.823442 -0.308658
v 0.587938 2.699079 -0.392848
v 0.691342 2.547543 -0.461940
v 0.768178 2.374656 -0.513280
v 0.815493 2.187063 -0.544895
v 0.180240 2.972758 -0.074658
v 0.353553 2.915852 -0.146447
v 0.513280 2.823442 -0.212608
v 0.653281 2.699079 -0.270598
v 0.768178 2.547543 -0.318190
v 0.853553 2.374656 -0.353554
v 0.906127 2.187063 -0.375330
v 0.191342 2.972758 -0.038060
v 0.375330 2.915852 -0.074658
v 0.544895 2.823442 -0.108386
v 0.693520 2.699079 -0.137950
v 0.815493 2.547543 -0.162212
v 0.906127 2.374656 -0.180240
v 0.961940 2.187063 -0.191342
v 0.195090 2.972758 -0.000000
v 0.382683 2.915852 -0.000000
v 0.555570 2.823442 -0.000000
v 0.707107 2.699079 -0.000000
v 0.831469 2.547543 -0.000000
v 0.923879 2.374656 -0.000000
v 0.980785 2.187063 -0.000000
v 0.191342 2.972758 0.038060
v 0.375330 2.915852 0.074658
v 0.544895 2.823442 0.108386
v 0.693520 2.699079 0.137950
v 0.815493 2.547543 0.162212
v 0.906127 2.374656 0.180240
v 0.961939 2.187063 0.191342
v 0.180240 2.972758 0.074658
v 0.353553 2.915852 0.146447
v 0.513280 2.823442 0.212607
v 0.653281 2.699079 0.270598
v 0.768177 2.547543 0.318190
v 0.853553 2.374656 0.353553
v 0.906127 2.187063 0.375330
v 0.162211 2.972758 0.108386
v 0.318189 2.915852 0.212607
v 0.461939 2.823442 0.308658
v 0.587938 2.699079 0.392847
v 0.691341 2.547543 0.461940
v 0.768178 2.374656 0.513280
v 0.815493 2.187063 0.544895
v 0.137949 2.972758 0.137950
v 0.270598 2.915852 0.270598
v 0.392847 2.823442 0.392847
v 0.500000 2.699079 0.500000
v 0.587937 2.547543 0.587938
v 0.653281 2.374656 0.653281
v 0.693520 2.187063 0.693520
v 0.108386 2.972758 0.162211
v 0.212607 2.915852 0.318190
v 0.308658 2.823442 0.461940
v 0.392847 2.699079 0.587938
v 0.461939 2.547543 0.691341
v 0.513280 2.374656 0.768177
v 0.544895 2.187063 0.815493
v 0.074658 2.972758 0.180240
v 0.146446 2.915852 0.353553
v 0.212607 2.823442 0.513280
v 0.270598 2.699079 0.653281
v 0.318189 2.547543 0.768177
v 0.353553 2.374656 0.853553
v 0.375330 2.187063 0.906127
v 0.038060 2.972758 0.191341
v 0.074658 2.915852 0.375330
v 0.108386 2.823442 0.544895
v 0.137950 2.699079 0.693520
v 0.162211 2.547543 0.815493
v 0.180240 2.374656 0.906127
v 0.191341 2.187063 0.961939
v -0.000000 2.972758 0.195090
v -0.000000 2.915852 0.382683
v -0.000000 2.823442 0.555570
v -0.000000 2.699079 0.707107
v -0.000000 2.547543 0.831469
v -0.000000 2.374656 0.923879
v -0.000000 2.187063 0.980785
v -0.038060 2.972758 0.191341
v -0.074658 2.915852 0.375330
v -0.108387 2.823442 0.544895
v -0.137950 2.699079 0.693520
v -0.162212 2.547543 0.815493
v -0.180240 2.374656 0.906127
v -0.191342 2.187063 0.961939
v -0.074658 2.972758 0.180240
v -0.146447 2.915852 0.353553
v -0.212608 2.823442 0.513279
v -0.270598 2.699079 0.653281
v -0.318190 2.547543 0.768177
v -0.353553 2.374656 0.853553
v -0.375330 2.187063 0.906127
v -0.108386 2.972758 0.162211
v -0.212608 2.915852 0.318189
v -0.308658 2.823442 0.461939
v -0.392848 2.699079 0.587938
v -0.461940 2.547543 0.691341
v -0.513280 2.374656 0.768177
v -0.544895 2.187063 0.815493
v -0.137950 2.972758 0.137949
v -0.270598 2.915852 0.270598
v -0.392847 2.823442 0.392847
v -0.500000 2.699079 0.500000
v -0.587938 2.547543 0.587937
v -0.653281 2.374656 0.653281
v -0.693520 2.187063 0.693519
v -0.162212 2.972758 0.108386
v -0.318190 2.915852 0.212607
v -0.461940 2.823442 0.308658
v -0.587938 2.699079 0.392847
v -0.691342 2.547543 0.461939
v -0.768178 2.374656 0.513280
v -0.815493 2.187063 0.544895
v -0.180240 2.972758 0.074658
v -0.353553 2.915852 0.146446
v -0.513280 2.823442 0.212607
v -0.653281 2.699079 0.270598
v -0.768178 2.547543 0.318189
v -0.853553 2.374656 0.353553
v -0.906127 2.187063 0.375330
v -0.191342 2.972758 0.038060
v -0.375330 2.915852 0.074658
v -0.544895 2.823442 0.108386
v -0.693520 2.699079 0.137950
v -0.815493 2.547543 0.162211
v -0.906127 2.374656 0.180240
v -0.961940 2.187063 0.191341
v -0.195090 2.972758 -0.000000
v -0.382683 2.915852 -0.000000
v -0.555570 2.823442 -0.000000
v -0.707107 2.699079 -0.000000
v -0.831469 2.547543 -0.000000
v -0.923879 2.374656 -0.000000
v -0.980785 2.187063 -0.000000
v -0.191342 2.972758 -0.038060
v -0.375330 2.915852 -0.074658
v -0.544895 2.823442 -0.108387
v -0.693520 2.699079 -0.137950
v -0.815493 2.547543 -0.162212
v -0.906127 2.374656 -0.180240
v -0.961939 2.187063 -0.191342
v -0.180240 2.972758 -0.074658
v -0.353553 2.915852 -0.146447
v -0.513280 2.823442 -0.212608
v -0.653281 2.699079 -0.270598
v -0.768177 2.547543 -0.318190
v -0.853553 2.374656 -0.353553
v -0.906127 2.187063 -0.375330
v -0.162212 2.972758 -0.108386
v -0.318190 2.915852 -0.212608
v -0.461939 2.823442 -0.308658
v -0.587938 2.699079 -0.392848
v -0.691341 2.547543 -0.461940
v -0.768178 2.374656 -0.513280
v -0.815493 2.187063 -0.544895
v -0.137950 2.972758 -0.137950
v -0.270598 2.915852 -0.270598
v -0.392847 2.823442 -0.392847
v -0.500000 2.699079 -0.500000
v -0.587937 2.547543 -0.587938
v -0.653281 2.374656 -0.653281
v -0.693519 2.187063 -0.693520
v -0.108386 2.972758 -0.162212
v -0.212607 2.915852 -0.318190
v -0.308658 2.823442 -0.461940
v -0.392847 2.699079 -0.587938
v -0.461939 2.547543 -0.691341
v -0.513280 2.374656 -0.768178
v -0.544895 2.187063 -0.815493
v -0.074658 2.972758 -0.180240
v -0.146447 2.915852 -0.353553
v -0.212607 2.823442 -0.513280
v -0.270598 2.699079 -0.653281
v -0.318189 2.547543 -0.768177
v -0.353553 2.374656 -0.853553
v -0.375330 2.187063 -0.906127
v -0.038060 2.972758 -0.191342
v -0.074658 2.915852 -0.375330
v -0.108386 2.823442 -0.544895
v -0.137950 2.699079 -0.693520
v -0.162211 2.547543 -0.815493
v -0.180240 2.374656 -0.906127
v -0.191341 2.187063 -0.961939
v -0.000000 2.972758 -0.195090
v -0.000000 2.915852 -0.382683
v -0.000000 2.699079 -0.707107
v -0.000000 2.374656 -0.923879
v -0.000000 2.991972 -0.000000
vn 0.0975 -0.0975 -0.9904
vn 0.0938 -0.2890 -0.9527
vn 0.0865 -0.4696 -0.8786
vn 0.0759 -0.6326 -0.7708
vn 0.0624 -0.7715 -0.6332
vn 0.0464 -0.8810 -0.4709
vn 0.0286 -0.9565 -0.2902
vn 0.0975 0.0975 -0.9904
vn 0.0097 0.9951 -0.0980
vn 0.0097 -0.9951 -0.0980
vn 0.0846 -0.9565 -0.2790
vn 0.2889 0.0976 -0.9524
vn 0.0286 0.9951 -0.0942
vn 0.0286 -0.9951 -0.0942
vn 0.2889 -0.0976 -0.9524
vn 0.2779 -0.2890 -0.9161
vn 0.2563 -0.4696 -0.8448
vn 0.2248 -0.6326 -0.7412
vn 0.1847 -0.7715 -0.6088
vn 0.1374 -0.8810 -0.4528
vn 0.3651 -0.6326 -0.6831
vn 0.2999 -0.7715 -0.5611
vn 0.2230 -0.8810 -0.4173
vn 0.1374 -0.9565 -0.2571
vn 0.4691 0.0975 -0.8777
vn 0.0464 0.9951 -0.0869
vn 0.0464 -0.9951 -0.0869
vn 0.4691 -0.0975 -0.8777
vn 0.4513 -0.2890 -0.8443
vn 0.4162 -0.4696 -0.7786
vn 0.0625 0.9951 -0.0761
vn 0.0625 -0.9951 -0.0761
vn 0.6314 -0.0975 -0.7693
vn 0.6073 -0.2890 -0.7400
vn 0.5601 -0.4696 -0.6825
vn 0.4913 -0.6326 -0.5987
vn 0.4036 -0.7715 -0.4918
vn 0.3002 -0.8810 -0.3658
vn 0.1850 -0.9565 -0.2254
vn 0.6314 0.0975 -0.7693
vn 0.4918 -0.7715 -0.4036
vn 0.3658 -0.8810 -0.3002
vn 0.2254 -0.9565 -0.1850
vn 0.7693 0.0975 -0.6314
vn 0.0761 0.9951 -0.0625
vn 0.0761 -0.9951 -0.0625
vn 0.7693 -0.0975 -0.6314
vn 0.7400 -0.2890 -0.6073
vn 0.6825 -0.4696 -0.5601
vn 0.5987 -0.6326 -0.4913
vn 0.8777 -0.0975 -0.4691
vn 0.8443 -0.2890 -0.4513
vn 0.7786 -0.4696 -0.4162
vn 0.6831 -0.6326 -0.3651
vn 0.5611 -0.7715 -0.2999
vn 0.4173 -0.8810 -0.2230
vn 0.2571 -0.9565 -0.1374
vn 0.8777 0.0975 -0.4691
vn 0.0869 0.9951 -0.0464
vn 0.0869 -0.9951 -0.0464
vn 0.6088 -0.7715 -0.1847
vn 0.4528 -0.8810 -0.1374
vn 0.2790 -0.9565 -0.0846
vn 0.9524 0.0975 -0.2889
vn 0.0942 0.9951 -0.0286
vn 0.0942 -0.9951 -0.0286
vn 0.9524 -0.0975 -0.2889
vn 0.9161 -0.2890 -0.2779
vn 0.8448 -0.4696 -0.2563
vn 0.7412 -0.6326 -0.2248
vn 0.9527 -0.2890 -0.0938
vn 0.8786 -0.4696 -0.0865
vn 0.7708 -0.6326 -0.0759
vn 0.6332 -0.7715 -0.0624
vn 0.4709 -0.8810 -0.0464
vn 0.2902 -0.9565 -0.0286
vn 0.9904 0.0975 -0.0975
vn 0.0980 0.9951 -0.0097
vn 0.0980 -0.9951 -0.0097
vn 0.9904 -0.0975 -0.0975
vn 0.4709 -0.8810 0.0464
vn 0.2902 -0.9565 0.0286
vn 0.9904 0.0975 0.0976
vn 0.0980 0.9951 0.0097
vn 0.0980 -0.9951 0.0097
vn 0.9904 -0.0975 0.0976
vn 0.9527 -0.2890 0.0938
vn 0.8786 -0.4696 0.0865
vn 0.7708 -0.6326 0.0759
vn 0.6332 -0.7715 0.0624
vn 0.9161 -0.2890 0.2779
vn 0.8448 -0.4696 0.2563
vn 0.7412 -0.6326 0.2248
vn 0.6088 -0.7715 0.1847
vn 0.4528 -0.8810 0.1374
vn 0.2790 -0.9565 0.0846
vn 0.9524 0.0975 0.2889
vn 0.0942 0.9951 0.0286
vn 0.0942 -0.9951 0.0286
vn 0.9524 -0.0975 0.2889
vn 0.4173 -0.8810 0.2230
vn 0.2571 -0.9565 0.1374
vn 0.8777 0.0975 0.4691
vn 0.0869 0.9951 0.0464
vn 0.0869 -0.9951 0.0464
vn 0.8777 -0.0975 0.4691
vn 0.8443 -0.2890 0.4513
vn 0.7786 -0.4696 0.4162
vn 0.6831 -0.6326 0.3651
vn 0.5611 -0.7715 0.2999
vn 0.6825 -0.4696 0.5601
vn 0.5987 -0.6326 0.4913
vn 0.4918 -0.7715 0.4036
vn 0.3658 -0.8810 0.3002
vn 0.2254 -0.9565 0.1850
vn 0.7693 0.0975 0.6314
vn 0.0761 0.9951 0.0625
vn 0.0761 -0.9951 0.0625
vn 0.7693 -0.0975 0.6314
vn 0.7400 -0.2890 0.6073
vn 0.1850 -0.9565 0.2254
vn 0.6314 0.0975 0.7693
vn 0.0625 0.9951 0.0761
vn 0.0625 -0.9951 0.0761
vn 0.6314 -0.0975 0.7693
vn 0.6073 -0.2890 0.7400
vn 0.5601 -0.4696 0.6825
vn 0.4913 -0.6326 0.5987
vn 0.4036 -0.7715 0.4918
vn 0.3002 -0.8810 0.3658
vn 0.3651 -0.6326 0.6831
vn 0.2999 -0.7715 0.5611
vn 0.2230 -0.8810 0.4173
vn 0.1374 -0.9565 0.2571
vn 0.4691 0.0975 0.8777
vn 0.0464 0.9951 0.0869
vn 0.0464 -0.9951 0.0869
vn 0.4691 -0.0975 0.8777
vn 0.4513 -0.2890 0.8443
vn 0.4162 -0.4696 0.7786
vn 0.2889 0.0975 0.9524
vn 0.0286 0.9951 0.0942
vn 0.0286 -0.9951 0.0942
vn 0.2889 -0.0975 0.9524
vn 0.2779 -0.2890 0.9161
vn 0.2563 -0.4696 0.8448
vn 0.2248 -0.6326 0.7412
vn 0.1847 -0.7715 0.6088
vn 0.1374 -0.8810 0.4528
vn 0.0846 -0.9565 0.2790
vn 0.0759 -0.6326 0.7708
vn 0.0624 -0.7715 0.6332
vn 0.0464 -0.8810 0.4709
vn 0.0286 -0.9565 0.2902
vn 0.0975 0.0975 0.9904
vn 0.0097 0.9951 0.0980
vn 0.0097 -0.9951 0.0980
vn 0.0975 -0.0975 0.9904
vn 0.0938 -0.2890 0.9527
vn 0.0865 -0.4696 0.8786
vn -0.0097 0.9951 0.0980
vn -0.0097 -0.9951 0.0980
vn -0.0976 -0.0975 0.9904
vn -0.0938 -0.2890 0.9527
vn -0.0865 -0.4696 0.8786
vn -0.0759 -0.6326 0.7708
vn -0.0624 -0.7715 0.6332
vn -0.0464 -0.8810 0.4709
vn -0.0286 -0.9565 0.2902
vn -0.0976 0.0975 0.9904
vn -0.1847 -0.7715 0.6088
vn -0.1374 -0.8810 0.4528
vn -0.0846 -0.9565 0.2790
vn -0.2889 0.0975 0.9524
vn -0.0286 0.9951 0.0942
vn -0.0286 -0.9951 0.0942
vn -0.2889 -0.0975 0.9524
vn -0.2779 -0.2890 0.9161
vn -0.2563 -0.4696 0.8448
vn -0.2248 -0.6326 0.7412
vn -0.4691 -0.0975 0.8777
vn -0.4513 -0.2890 0.8443
vn -0.4162 -0.4696 0.7786
vn -0.3651 -0.6326 0.6831
vn -0.2999 -0.7715 0.5611
vn -0.2230 -0.8810 0.4173
vn -0.1374 -0.9565 0.2571
vn -0.4691 0.0975 0.8777
vn -0.0464 0.9951 0.0869
vn -0.0464 -0.9951 0.0869
vn -0.4036 -0.7715 0.4918
vn -0.3002 -0.8810 0.3658
vn -0.1850 -0.9565 0.2254
vn -0.6314 0.0975 0.7693
vn -0.0625 0.9951 0.0761
vn -0.0625 -0.9951 0.0761
vn -0.6314 -0.0975 0.7693
vn -0.6073 -0.2890 0.7400
vn -0.5601 -0.4696 0.6825
vn -0.4913 -0.6326 0.5987
vn -0.7400 -0.2890 0.6073
vn -0.6825 -0.4696 0.5601
vn -0.5987 -0.6326 0.4913
vn -0.4918 -0.7715 0.4036
vn -0.3658 -0.8810 0.3002
vn -0.2254 -0.9565 0.1850
vn -0.7693 0.0975 0.6314
vn -0.0761 0.9951 0.0625
vn -0.0761 -0.9951 0.0625
vn -0.7693 -0.0975 0.6314
vn -0.4173 -0.8810 0.2230
vn -0.2571 -0.9565 0.1374
vn -0.8777 0.0975 0.4691
vn -0.0869 0.9951 0.0464
vn -0.0869 -0.9951 0.0464
vn -0.8777 -0.0975 0.4691
vn -0.8443 -0.2890 0.4513
vn -0.8819 -0.0000 0.4714
vn -0.7786 -0.4696 0.4162
vn 0.9952 -0.0000 -0.0980
vn -0.6831 -0.6326 0.3651
vn -0.7730 -0.0000 -0.6344
vn -0.5611 -0.7715 0.2999
vn -0.4714 -0.0000 -0.8819
vn -0.4714 -0.0000 0.8819
vn -0.8448 -0.4696 0.2563
vn -0.2903 -0.0000 -0.9569
vn -0.7412 -0.6326 0.2248
vn -0.7730 -0.0000 0.6344
vn -0.6088 -0.7715 0.1847
vn 0.0980 -0.0000 -0.9952
vn -0.4528 -0.8810 0.1374
vn 0.2903 -0.0000 0.9569
vn -0.2790 -0.9565 0.0846
vn -0.9524 0.0975 0.2889
vn -0.0942 0.9951 0.0286
vn -0.0942 -0.9951 0.0286
vn -0.9524 -0.0975 0.2889
vn 0.7730 -0.0000 0.6344
vn -0.9161 -0.2890 0.2779
vn -0.0980 -0.0000 -0.9952
vn -0.2902 -0.9565 0.0286
vn -0.9904 0.0975 0.0975
vn -0.0980 0.9951 0.0097
vn -0.0980 -0.9951 0.0097
vn -0.9904 -0.0975 0.0975
vn -0.9527 -0.2890 0.0938
vn -0.9569 -0.0000 -0.2903
vn -0.8786 -0.4696 0.0865
vn 0.4714 -0.0000 -0.8819
vn -0.7708 -0.6326 0.0759
vn 0.8819 -0.0000 -0.4714
vn -0.6332 -0.7715 0.0624
vn -0.9952 -0.0000 0.0980
vn -0.4709 -0.8810 0.0464
vn -0.8786 -0.4696 -0.0865
vn -0.6344 -0.0000 -0.7730
vn -0.7708 -0.6326 -0.0759
vn -0.6332 -0.7715 -0.0624
vn 0.6344 -0.0000 0.7730
vn -0.4709 -0.8810 -0.0464
vn -0.2902 -0.9565 -0.0286
vn -0.9904 0.0975 -0.0976
vn -0.0980 0.9951 -0.0097
vn -0.0980 -0.9951 -0.0097
vn -0.9904 -0.0975 -0.0976
vn 0.9569 -0.0000 0.2903
vn -0.9527 -0.2890 -0.0938
vn -0.2790 -0.9565 -0.0846
vn -0.9524 0.0975 -0.2889
vn -0.0942 0.9951 -0.0286
vn -0.0942 -0.9951 -0.0286
vn -0.9524 -0.0975 -0.2889
vn 0.6344 -0.0000 -0.7730
vn -0.9161 -0.2890 -0.2779
vn -0.8448 -0.4696 -0.2563
vn -0.6344 -0.0000 0.7730
vn -0.7412 -0.6326 -0.2248
vn -0.8819 -0.0000 -0.4714
vn -0.6088 -0.7715 -0.1847
vn -0.2903 -0.0000 0.9569
vn -0.4528 -0.8810 -0.1374
vn 0.4714 -0.0000 0.8819
vn -0.6831 -0.6326 -0.3651
vn -0.0980 -0.0000 0.9952
vn -0.5611 -0.7715 -0.2999
vn 0.2903 -0.0000 -0.9569
vn -0.4173 -0.8810 -0.2231
vn -0.2571 -0.9565 -0.1374
vn -0.8777 0.0975 -0.4691
vn -0.0869 0.9951 -0.0464
vn -0.0869 -0.9951 -0.0464
vn -0.8777 -0.0975 -0.4691
vn -0.8443 -0.2890 -0.4513
vn 0.8819 -0.0000 0.4714
vn -0.7786 -0.4696 -0.4162
vn -0.7693 0.0975 -0.6314
vn -0.0761 0.9951 -0.0625
vn -0.0761 -0.9951 -0.0625
vn -0.7693 -0.0975 -0.6314
vn -0.7400 -0.2890 -0.6073
vn -0.6825 -0.4696 -0.5601
vn -0.9952 -0.0000 -0.0980
vn -0.5987 -0.6326 -0.4913
vn -0.4918 -0.7715 -0.4036
vn -0.3658 -0.8810 -0.3002
vn -0.2254 -0.9565 -0.1850
vn -0.4913 -0.6326 -0.5987
vn -0.4036 -0.7715 -0.4918
vn 0.9952 -0.0000 0.0980
vn -0.3002 -0.8810 -0.3658
vn -0.1850 -0.9565 -0.2254
vn -0.6314 0.0975 -0.7693
vn -0.0625 0.9951 -0.0761
vn -0.0625 -0.9951 -0.0761
vn -0.6314 -0.0975 -0.7693
vn -0.6073 -0.2890 -0.7400
vn 0.0980 -0.0000 0.9952
vn -0.5601 -0.4696 -0.6825
vn -0.0464 -0.9951 -0.0869
vn -0.4691 -0.0975 -0.8777
vn -0.9569 -0.0000 0.2903
vn -0.4513 -0.2890 -0.8443
vn -0.4162 -0.4696 -0.7786
vn -0.3651 -0.6326 -0.6831
vn -0.2999 -0.7715 -0.5611
vn -0.2230 -0.8810 -0.4173
vn 0.9569 -0.0000 -0.2903
vn -0.1374 -0.9565 -0.2571
vn -0.4691 0.0975 -0.8777
vn -0.0464 0.9951 -0.0869
vn -0.1847 -0.7715 -0.6088
vn -0.1374 -0.8810 -0.4528
vn -0.0846 -0.9565 -0.2790
vn -0.2889 0.0975 -0.9524
vn -0.0286 0.9951 -0.0942
vn -0.0286 -0.9951 -0.0942
vn -0.2889 -0.0975 -0.9524
vn -0.2779 -0.2890 -0.9161
vn -0.2563 -0.4696 -0.8448
vn -0.2248 -0.6326 -0.7412
vn -0.0938 -0.2890 -0.9527
vn -0.0865 -0.4696 -0.8786
vn -0.0759 -0.6326 -0.7708
vn -0.0624 -0.7715 -0.6332
vn 0.7730 -0.0000 -0.6344
vn -0.0464 -0.8810 -0.4709
vn -0.0286 -0.9565 -0.2902
vn -0.0976 0.0975 -0.9904
vn -0.0097 0.9951 -0.0980
vn -0.0097 -0.9951 -0.0980
vn -0.0976 -0.0975 -0.9904
vn 0.0286 0.9565 -0.2902
vn 0.0464 0.8810 -0.4709
vn 0.0624 0.7715 -0.6332
vn 0.0759 0.6326 -0.7708
vn 0.0865 0.4696 -0.8786
vn 0.0938 0.2890 -0.9527
vn 0.0846 0.9565 -0.2790
vn 0.1374 0.8810 -0.4528
vn 0.1847 0.7715 -0.6088
vn 0.2248 0.6326 -0.7412
vn 0.2563 0.4696 -0.8448
vn 0.2779 0.2890 -0.9161
vn 0.3651 0.6326 -0.6831
vn 0.4162 0.4696 -0.7786
vn 0.4513 0.2890 -0.8443
vn 0.1374 0.9565 -0.2571
vn 0.2230 0.8810 -0.4173
vn 0.2999 0.7715 -0.5611
vn 0.1850 0.9565 -0.2254
vn 0.3002 0.8810 -0.3658
vn 0.4036 0.7715 -0.4918
vn 0.4913 0.6326 -0.5987
vn 0.5601 0.4696 -0.6825
vn 0.6073 0.2890 -0.7400
vn 0.5987 0.6326 -0.4913
vn 0.6825 0.4696 -0.5601
vn 0.7400 0.2890 -0.6073
vn 0.2254 0.9565 -0.1850
vn 0.3658 0.8810 -0.3002
vn 0.4918 0.7715 -0.4036
vn 0.2571 0.9565 -0.1374
vn 0.4173 0.8810 -0.2230
vn 0.5611 0.7715 -0.2999
vn 0.6831 0.6326 -0.3651
vn 0.7786 0.4696 -0.4162
vn 0.8443 0.2890 -0.4513
vn 0.8448 0.4696 -0.2563
vn 0.9161 0.2890 -0.2779
vn 0.2790 0.9565 -0.0846
vn 0.4528 0.8810 -0.1374
vn 0.6088 0.7715 -0.1847
vn 0.7412 0.6326 -0.2248
vn 0.2902 0.9565 -0.0286
vn 0.4709 0.8810 -0.0464
vn 0.6332 0.7715 -0.0624
vn 0.7708 0.6326 -0.0759
vn 0.8786 0.4696 -0.0865
vn 0.9527 0.2890 -0.0938
vn 0.8786 0.4696 0.0865
vn 0.9527 0.2890 0.0938
vn 0.2902 0.9565 0.0286
vn 0.4709 0.8810 0.0464
vn 0.6332 0.7715 0.0624
vn 0.7708 0.6326 0.0759
vn 0.4528 0.8810 0.1374
vn 0.6088 0.7715 0.1847
vn 0.7412 0.6326 0.2248
vn 0.8448 0.4696 0.2563
vn 0.9161 0.2890 0.2779
vn 0.2790 0.9565 0.0846
vn 0.8443 0.2890 0.4513
vn 0.2571 0.9565 0.1374
vn 0.4173 0.8810 0.2230
vn 0.5611 0.7715 0.2999
vn 0.6831 0.6326 0.3651
vn 0.7786 0.4696 0.4162
vn 0.4918 0.7715 0.4036
vn 0.5987 0.6326 0.4913
vn 0.6825 0.4696 0.5601
vn 0.7400 0.2890 0.6073
vn 0.2254 0.9565 0.1850
vn 0.3658 0.8810 0.3002
vn 0.1850 0.9565 0.2254
vn 0.3002 0.8810 0.3658
vn 0.4036 0.7715 0.4918
vn 0.4913 0.6326 0.5987
vn 0.5601 0.4696 0.6825
vn 0.6073 0.2890 0.7400
vn 0.2999 0.7715 0.5611
vn 0.3651 0.6326 0.6831
vn 0.4162 0.4696 0.7786
vn 0.4513 0.2890 0.8443
vn 0.1374 0.9565 0.2571
vn 0.2230 0.8810 0.4173
vn 0.0846 0.9565 0.2790
vn 0.1374 0.8810 0.4528
vn 0.1847 0.7715 0.6088
vn 0.2248 0.6326 0.7412
vn 0.2563 0.4696 0.8448
vn 0.2779 0.2890 0.9161
vn 0.0759 0.6326 0.7708
vn 0.0865 0.4696 0.8786
vn 0.0938 0.2890 0.9527
vn 0.0286 0.9565 0.2902
vn 0.0464 0.8810 0.4709
vn 0.0624 0.7715 0.6332
vn -0.0286 0.9565 0.2902
vn -0.0464 0.8810 0.4709
vn -0.0624 0.7715 0.6332
vn -0.0759 0.6326 0.7708
vn -0.0865 0.4696 0.8786
vn -0.0938 0.2890 0.9527
vn -0.2248 0.6326 0.7412
vn -0.2563 0.4696 0.8448
vn -0.2779 0.2890 0.9161
vn -0.0846 0.9565 0.2790
vn -0.1374 0.8810 0.4528
vn -0.1847 0.7715 0.6088
vn -0.1374 0.9565 0.2571
vn -0.2230 0.8810 0.4173
vn -0.2999 0.7715 0.5611
vn -0.3651 0.6326 0.6831
vn -0.4162 0.4696 0.7786
vn -0.4513 0.2890 0.8443
vn -0.5601 0.4696 0.6825
vn -0.6073 0.2890 0.7400
vn -0.1850 0.9565 0.2254
vn -0.3002 0.8810 0.3658
vn -0.4036 0.7715 0.4918
vn -0.4913 0.6326 0.5987
vn -0.3658 0.8810 0.3002
vn -0.4918 0.7715 0.4036
vn -0.5987 0.6326 0.4913
vn -0.6825 0.4696 0.5601
vn -0.7400 0.2890 0.6073
vn -0.2254 0.9565 0.1850
vn -0.8443 0.2890 0.4513
vn -0.2571 0.9565 0.1374
vn -0.4173 0.8810 0.2230
vn -0.5611 0.7715 0.2999
vn -0.6831 0.6326 0.3651
vn -0.7786 0.4696 0.4162
vn -0.4528 0.8810 0.1374
vn -0.6088 0.7715 0.1847
vn -0.7412 0.6326 0.2248
vn -0.8448 0.4696 0.2563
vn -0.9161 0.2890 0.2779
vn -0.2790 0.9565 0.0846
vn -0.9527 0.2890 0.0938
vn -0.2902 0.9565 0.0286
vn -0.4709 0.8810 0.0464
vn -0.6332 0.7715 0.0624
vn -0.7708 0.6326 0.0759
vn -0.8786 0.4696 0.0865
vn -0.6332 0.7715 -0.0624
vn -0.7708 0.6326 -0.0759
vn -0.8786 0.4696 -0.0865
vn -0.9527 0.2890 -0.0938
vn -0.2902 0.9565 -0.0286
vn -0.4709 0.8810 -0.0464
vn -0.2790 0.9565 -0.0846
vn -0.4528 0.8810 -0.1374
vn -0.6088 0.7715 -0.1847
vn -0.7412 0.6326 -0.2248
vn -0.8448 0.4696 -0.2563
vn -0.9161 0.2890 -0.2779
vn -0.5611 0.7715 -0.2999
vn -0.6831 0.6326 -0.3651
vn -0.7786 0.4696 -0.4162
vn -0.8443 0.2890 -0.4513
vn -0.2571 0.9565 -0.1374
vn -0.4173 0.8810 -0.2231
vn -0.2254 0.9565 -0.1850
vn -0.3658 0.8810 -0.3002
vn -0.4918 0.7715 -0.4036
vn -0.5987 0.6326 -0.4913
vn -0.6825 0.4696 -0.5601
vn -0.7400 0.2890 -0.6073
vn -0.4913 0.6326 -0.5987
vn -0.5601 0.4696 -0.6825
vn -0.6073 0.2890 -0.7400
vn -0.1850 0.9565 -0.2254
vn -0.3002 0.8810 -0.3658
vn -0.4036 0.7715 -0.4918
vn -0.1374 0.9565 -0.2571
vn -0.2231 0.8810 -0.4173
vn -0.2999 0.7715 -0.5611
vn -0.3651 0.6326 -0.6831
vn -0.4162 0.4696 -0.7786
vn -0.4513 0.2890 -0.8443
vn -0.2563 0.4696 -0.8448
vn -0.2779 0.2890 -0.9161
vn -0.0846 0.9565 -0.2790
vn -0.1374 0.8810 -0.4528
vn -0.1847 0.7715 -0.6088
vn -0.2248 0.6326 -0.7412
vn -0.0286 0.9565 -0.2902
vn -0.0464 0.8810 -0.4709
vn -0.0624 0.7715 -0.6332
vn -0.0759 0.6326 -0.7708
vn -0.0865 0.4696 -0.8786
vn -0.0938 0.2890 -0.9527
vt 0.750000 0.437500
vt 0.750000 0.500000
vt 0.718750 0.500000
vt 0.718750 0.437500
vt 0.750000 0.375000
vt 0.718750 0.375000
vt 0.750000 0.312500
vt 0.718750 0.312500
vt 0.750000 0.250000
vt 0.718750 0.250000
vt 0.750000 0.187500
vt 0.718750 0.187500
vt 0.750000 0.125000
vt 0.718750 0.125000
vt 0.750000 0.062500
vt 0.718750 0.062500
vt 0.750000 0.562500
vt 0.718750 0.562500
vt 0.750000 0.937500
vt 0.734375 1.000000
vt 0.718750 0.937500
vt 0.734375 0.000000
vt 0.687500 0.125000
vt 0.687500 0.062500
vt 0.687500 0.562500
vt 0.687500 0.500000
vt 0.703125 1.000000
vt 0.687500 0.937500
vt 0.703125 0.000000
vt 0.687500 0.437500
vt 0.687500 0.375000
vt 0.687500 0.312500
vt 0.687500 0.250000
vt 0.687500 0.187500
vt 0.656250 0.312500
vt 0.656250 0.250000
vt 0.656250 0.187500
vt 0.656250 0.125000
vt 0.656250 0.062500
vt 0.656250 0.562500
vt 0.656250 0.500000
vt 0.671875 1.000000
vt 0.656250 0.937500
vt 0.671875 0.000000
vt 0.656250 0.437500
vt 0.656250 0.375000
vt 0.640625 1.000000
vt 0.625000 0.937500
vt 0.640625 0.000000
vt 0.625000 0.062500
vt 0.625000 0.500000
vt 0.625000 0.437500
vt 0.625000 0.375000
vt 0.625000 0.312500
vt 0.625000 0.250000
vt 0.625000 0.187500
vt 0.625000 0.125000
vt 0.625000 0.562500
vt 0.593750 0.250000
vt 0.593750 0.187500
vt 0.593750 0.125000
vt 0.593750 0.062500
vt 0.593750 0.562500
vt 0.593750 0.500000
vt 0.609375 1.000000
vt 0.593750 0.937500
vt 0.609375 0.000000
vt 0.593750 0.437500
vt 0.593750 0.375000
vt 0.593750 0.312500
vt 0.562500 0.500000
vt 0.562500 0.437500
vt 0.562500 0.375000
vt 0.562500 0.312500
vt 0.562500 0.250000
vt 0.562500 0.187500
vt 0.562500 0.125000
vt 0.562500 0.062500
vt 0.562500 0.562500
vt 0.578125 1.000000
vt 0.562500 0.937500
vt 0.578125 0.000000
vt 0.531250 0.250000
vt 0.531250 0.187500
vt 0.531250 0.125000
vt 0.531250 0.062500
vt 0.531250 0.562500
vt 0.531250 0.500000
vt 0.546875 1.000000
vt 0.531250 0.937500
vt 0.546875 0.000000
vt 0.531250 0.437500
vt 0.531250 0.375000
vt 0.531250 0.312500
vt 0.500000 0.437500
vt 0.500000 0.375000
vt 0.500000 0.312500
vt 0.500000 0.250000
vt 0.500000 0.187500
vt 0.500000 0.125000
vt 0.500000 0.062500
vt 0.500000 0.562500
vt 0.500000 0.500000
vt 0.515625 1.000000
vt 0.500000 0.937500
vt 0.515625 0.000000
vt 0.468750 0.187500
vt 0.468750 0.125000
vt 0.468750 0.062500
vt 0.468750 0.562500
vt 0.468750 0.500000
vt 0.484375 1.000000
vt 0.468750 0.937500
vt 0.484375 0.000000
vt 0.468750 0.437500
vt 0.468750 0.375000
vt 0.468750 0.312500
vt 0.468750 0.250000
vt 0.437500 0.437500
vt 0.437500 0.375000
vt 0.437500 0.312500
vt 0.437500 0.250000
vt 0.437500 0.187500
vt 0.437500 0.125000
vt 0.437500 0.062500
vt 0.437500 0.562500
vt 0.437500 0.500000
vt 0.453125 1.000000
vt 0.437500 0.937500
vt 0.453125 0.000000
vt 0.406250 0.187500
vt 0.406250 0.125000
vt 0.406250 0.062500
vt 0.406250 0.562500
vt 0.406250 0.500000
vt 0.421875 1.000000
vt 0.406250 0.937500
vt 0.421875 0.000000
vt 0.406250 0.437500
vt 0.406250 0.375000
vt 0.406250 0.312500
vt 0.406250 0.250000
vt 0.375000 0.375000
vt 0.375000 0.312500
vt 0.375000 0.250000
vt 0.375000 0.187500
vt 0.375000 0.125000
vt 0.375000 0.062500
vt 0.375000 0.562500
vt 0.375000 0.500000
vt 0.390625 1.000000
vt 0.375000 0.937500
vt 0.390625 0.000000
vt 0.375000 0.437500
vt 0.343750 0.125000
vt 0.343750 0.062500
vt 0.343750 0.562500
vt 0.343750 0.500000
vt 0.359375 1.000000
vt 0.343750 0.937500
vt 0.359375 0.000000
vt 0.343750 0.437500
vt 0.343750 0.375000
vt 0.343750 0.312500
vt 0.343750 0.250000
vt 0.343750 0.187500
vt 0.312500 0.312500
vt 0.312500 0.250000
vt 0.312500 0.187500
vt 0.312500 0.125000
vt 0.312500 0.062500
vt 0.312500 0.562500
vt 0.312500 0.500000
vt 0.328125 1.000000
vt 0.312500 0.937500
vt 0.328125 0.000000
vt 0.312500 0.437500
vt 0.312500 0.375000
vt 0.281250 0.562500
vt 0.281250 0.500000
vt 0.296875 1.000000
vt 0.281250 0.937500
vt 0.296875 0.000000
vt 0.281250 0.062500
vt 0.281250 0.437500
vt 0.281250 0.375000
vt 0.281250 0.312500
vt 0.281250 0.250000
vt 0.281250 0.187500
vt 0.281250 0.125000
vt 0.250000 0.312500
vt 0.250000 0.250000
vt 0.250000 0.187500
vt 0.250000 0.125000
vt 0.250000 0.062500
vt 0.250000 0.562500
vt 0.250000 0.500000
vt 0.265625 1.000000
vt 0.250000 0.937500
vt 0.265625 0.000000
vt 0.250000 0.437500
vt 0.250000 0.375000
vt 0.234375 1.000000
vt 0.218750 0.937500
vt 0.234375 0.000000
vt 0.218750 0.062500
vt 0.218750 0.500000
vt 0.218750 0.437500
vt 0.218750 0.375000
vt 0.218750 0.312500
vt 0.218750 0.250000
vt 0.218750 0.187500
vt 0.218750 0.125000
vt 0.218750 0.562500
vt 0.187500 0.250000
vt 0.187500 0.187500
vt 0.187500 0.125000
vt 0.187500 0.062500
vt 0.187500 0.562500
vt 0.187500 0.500000
vt 0.203125 1.000000
vt 0.187500 0.937500
vt 0.203125 0.000000
vt 0.187500 0.437500
vt 0.187500 0.375000
vt 0.187500 0.312500
vt 0.156250 0.500000
vt 0.156250 0.437500
vt 0.156250 0.375000
vt 0.156250 0.312500
vt 0.156250 0.250000
vt 0.156250 0.187500
vt 0.156250 0.125000
vt 0.156250 0.062500
vt 0.156250 0.562500
vt 0.171875 1.000000
vt 0.156250 0.937500
vt 0.171875 0.000000
vt 0.125000 0.250000
vt 0.125000 0.187500
vt 0.125000 0.125000
vt 0.125000 0.062500
vt 0.125000 0.562500
vt 0.125000 0.500000
vt 0.140625 1.000000
vt 0.125000 0.937500
vt 0.140625 0.000000
vt 0.125000 0.437500
vt 0.125000 0.375000
vt 0.125000 0.312500
vt 0.093750 0.437500
vt 0.093750 0.375000
vt 0.093750 0.312500
vt 0.093750 0.250000
vt 0.093750 0.187500
vt 0.093750 0.125000
vt 0.093750 0.062500
vt 0.093750 0.562500
vt 0.093750 0.500000
vt 0.109375 1.000000
vt 0.093750 0.937500
vt 0.109375 0.000000
vt 0.062500 0.187500
vt 0.062500 0.125000
vt 0.062500 0.062500
vt 0.062500 0.562500
vt 0.062500 0.500000
vt 0.078125 1.000000
vt 0.062500 0.937500
vt 0.078125 0.000000
vt 0.062500 0.437500
vt 0.062500 0.375000
vt 0.062500 0.312500
vt 0.031250 0.937500
vt 0.000000 0.937500
vt 0.062500 0.250000
vt 0.812500 0.562500
vt 0.843750 0.562500
vt 0.031250 0.375000
vt 0.031250 0.312500
vt 0.031250 0.250000
vt 0.031250 0.187500
vt 0.031250 0.125000
vt 0.031250 0.062500
vt 0.031250 0.562500
vt 0.031250 0.500000
vt 0.046875 1.000000
vt 0.046875 0.000000
vt 0.031250 0.437500
vt 0.781250 0.562500
vt 0.000000 0.125000
vt 0.000000 0.062500
vt 0.000000 0.562500
vt 0.000000 0.500000
vt 0.015625 1.000000
vt 0.015625 0.000000
vt 0.000000 0.437500
vt 0.812500 0.937500
vt 0.781250 0.937500
vt 0.000000 0.375000
vt 0.000000 0.312500
vt 0.000000 0.250000
vt 0.000000 0.187500
vt 1.000000 0.312500
vt 1.000000 0.375000
vt 0.968750 0.375000
vt 0.968750 0.312500
vt 1.000000 0.250000
vt 0.968750 0.250000
vt 1.000000 0.187500
vt 0.968750 0.187500
vt 1.000000 0.125000
vt 0.968750 0.125000
vt 1.000000 0.062500
vt 0.968750 0.062500
vt 1.000000 0.500000
vt 1.000000 0.562500
vt 0.968750 0.562500
vt 0.968750 0.500000
vt 1.000000 0.937500
vt 0.984375 1.000000
vt 0.968750 0.937500
vt 0.984375 0.000000
vt 1.000000 0.437500
vt 0.968750 0.437500
vt 0.875000 0.937500
vt 0.843750 0.937500
vt 0.937500 0.125000
vt 0.937500 0.062500
vt 0.937500 0.562500
vt 0.937500 0.500000
vt 0.953125 1.000000
vt 0.937500 0.937500
vt 0.953125 0.000000
vt 0.937500 0.437500
vt 0.937500 0.375000
vt 0.937500 0.312500
vt 0.937500 0.250000
vt 0.937500 0.187500
vt 0.875000 0.562500
vt 0.906250 0.312500
vt 0.906250 0.250000
vt 0.906250 0.187500
vt 0.906250 0.125000
vt 0.906250 0.062500
vt 0.906250 0.562500
vt 0.906250 0.500000
vt 0.921875 1.000000
vt 0.906250 0.937500
vt 0.921875 0.000000
vt 0.906250 0.437500
vt 0.906250 0.375000
vt 0.875000 0.500000
vt 0.890625 1.000000
vt 0.890625 0.000000
vt 0.875000 0.062500
vt 0.875000 0.437500
vt 0.875000 0.375000
vt 0.875000 0.312500
vt 0.875000 0.250000
vt 0.875000 0.187500
vt 0.875000 0.125000
vt 0.843750 0.312500
vt 0.843750 0.250000
vt 0.843750 0.187500
vt 0.843750 0.125000
vt 0.843750 0.062500
vt 0.843750 0.500000
vt 0.859375 1.000000
vt 0.859375 0.000000
vt 0.843750 0.437500
vt 0.843750 0.375000
vt 0.828125 0.000000
vt 0.812500 0.062500
vt 0.812500 0.500000
vt 0.812500 0.437500
vt 0.812500 0.375000
vt 0.812500 0.312500
vt 0.812500 0.250000
vt 0.812500 0.187500
vt 0.812500 0.125000
vt 0.828125 1.000000
vt 0.781250 0.250000
vt 0.781250 0.187500
vt 0.781250 0.125000
vt 0.781250 0.062500
vt 0.781250 0.500000
vt 0.796875 1.000000
vt 0.796875 0.000000
vt 0.781250 0.437500
vt 0.781250 0.375000
vt 0.781250 0.312500
vt 0.765625 1.000000
vt 0.765625 0.000000
vt 0.750000 0.875000
vt 0.718750 0.875000
vt 0.750000 0.812500
vt 0.718750 0.812500
vt 0.750000 0.750000
vt 0.718750 0.750000
vt 0.750000 0.687500
vt 0.718750 0.687500
vt 0.750000 0.625000
vt 0.718750 0.625000
vt 0.687500 0.875000
vt 0.687500 0.812500
vt 0.687500 0.750000
vt 0.687500 0.687500
vt 0.687500 0.625000
vt 0.656250 0.750000
vt 0.656250 0.687500
vt 0.656250 0.625000
vt 0.656250 0.875000
vt 0.656250 0.812500
vt 0.625000 0.875000
vt 0.625000 0.812500
vt 0.625000 0.750000
vt 0.625000 0.687500
vt 0.625000 0.625000
vt 0.593750 0.750000
vt 0.593750 0.687500
vt 0.593750 0.625000
vt 0.593750 0.875000
vt 0.593750 0.812500
vt 0.562500 0.875000
vt 0.562500 0.812500
vt 0.562500 0.750000
vt 0.562500 0.687500
vt 0.562500 0.625000
vt 0.531250 0.687500
vt 0.531250 0.625000
vt 0.531250 0.875000
vt 0.531250 0.812500
vt 0.531250 0.750000
vt 0.500000 0.875000
vt 0.500000 0.812500
vt 0.500000 0.750000
vt 0.500000 0.687500
vt 0.500000 0.625000
vt 0.468750 0.687500
vt 0.468750 0.625000
vt 0.468750 0.875000
vt 0.468750 0.812500
vt 0.468750 0.750000
vt 0.437500 0.875000
vt 0.437500 0.812500
vt 0.437500 0.750000
vt 0.437500 0.687500
vt 0.437500 0.625000
vt 0.406250 0.625000
vt 0.406250 0.875000
vt 0.406250 0.812500
vt 0.406250 0.750000
vt 0.406250 0.687500
vt 0.375000 0.812500
vt 0.375000 0.750000
vt 0.375000 0.687500
vt 0.375000 0.625000
vt 0.375000 0.875000
vt 0.343750 0.875000
vt 0.343750 0.812500
vt 0.343750 0.750000
vt 0.343750 0.687500
vt 0.343750 0.625000
vt 0.312500 0.812500
vt 0.312500 0.750000
vt 0.312500 0.687500
vt 0.312500 0.625000
vt 0.312500 0.875000
vt 0.281250 0.875000
vt 0.281250 0.812500
vt 0.281250 0.750000
vt 0.281250 0.687500
vt 0.281250 0.625000
vt 0.250000 0.750000
vt 0.250000 0.687500
vt 0.250000 0.625000
vt 0.250000 0.875000
vt 0.250000 0.812500
vt 0.218750 0.875000
vt 0.218750 0.812500
vt 0.218750 0.750000
vt 0.218750 0.687500
vt 0.218750 0.625000
vt 0.187500 0.750000
vt 0.187500 0.687500
vt 0.187500 0.625000
vt 0.187500 0.875000
vt 0.187500 0.812500
vt 0.156250 0.875000
vt 0.156250 0.812500
vt 0.156250 0.750000
vt 0.156250 0.687500
vt 0.156250 0.625000
vt 0.125000 0.687500
vt 0.125000 0.625000
vt 0.125000 0.875000
vt 0.125000 0.812500
vt 0.125000 0.750000
vt 0.093750 0.875000
vt 0.093750 0.812500
vt 0.093750 0.750000
vt 0.093750 0.687500
vt 0.093750 0.625000
vt 0.062500 0.625000
vt 0.062500 0.875000
vt 0.062500 0.812500
vt 0.062500 0.750000
vt 0.062500 0.687500
vt 0.031250 0.875000
vt 0.031250 0.812500
vt 0.031250 0.750000
vt 0.031250 0.687500
vt 0.031250 0.625000
vt 0.000000 0.625000
vt 0.000000 0.875000
vt 0.000000 0.812500
vt 0.000000 0.750000
vt 0.000000 0.687500
vt 1.000000 0.750000
vt 1.000000 0.812500
vt 0.968750 0.812500
vt 0.968750 0.750000
vt 1.000000 0.687500
vt 0.968750 0.687500
vt 1.000000 0.625000
vt 0.968750 0.625000
vt 1.000000 0.875000
vt 0.968750 0.875000
vt 0.937500 0.875000
vt 0.937500 0.812500
vt 0.937500 0.750000
vt 0.937500 0.687500
vt 0.937500 0.625000
vt 0.906250 0.812500
vt 0.906250 0.750000
vt 0.906250 0.687500
vt 0.906250 0.625000
vt 0.906250 0.875000
vt 0.875000 0.875000
vt 0.875000 0.812500
vt 0.875000 0.750000
vt 0.875000 0.687500
vt 0.875000 0.625000
vt 0.843750 0.750000
vt 0.843750 0.687500
vt 0.843750 0.625000
vt 0.843750 0.875000
vt 0.843750 0.812500
vt 0.812500 0.875000
vt 0.812500 0.812500
vt 0.812500 0.750000
vt 0.812500 0.687500
vt 0.812500 0.625000
vt 0.781250 0.687500
vt 0.781250 0.625000
vt 0.781250 0.875000
vt 0.781250 0.812500
vt 0.781250 0.750000
s 0
f 4/1/1 3/2/1 9/3/1 10/4/1
f 318/5/2 4/1/2 10/4/2 11/6/2
f 5/7/3 318/5/3 11/6/3 12/8/3
f 319/9/4 5/7/4 12/8/4 13/10/4
f 320/11/5 319/9/5 13/10/5 14/12/5
f 321/13/6 320/11/6 14/12/6 15/14/6
f 322/15/7 321/13/7 15/14/7 16/16/7
f 3/2/8 2/17/8 8/18/8 9/3/8
f 317/19/9 1/20/9 7/21/9
f 6/22/10 322/15/10 16/16/10
f 16/16/11 15/14/11 25/23/11 26/24/11
f 9/3/12 8/18/12 18/25/12 19/26/12
f 7/21/13 1/27/13 17/28/13
f 6/29/14 16/16/14 26/24/14
f 10/4/15 9/3/15 19/26/15 20/30/15
f 11/6/16 10/4/16 20/30/16 21/31/16
f 12/8/17 11/6/17 21/31/17 22/32/17
f 13/10/18 12/8/18 22/32/18 23/33/18
f 14/12/19 13/10/19 23/33/19 24/34/19
f 15/14/20 14/12/20 24/34/20 25/23/20
f 23/33/21 22/32/21 32/35/21 33/36/21
f 24/34/22 23/33/22 33/36/22 34/37/22
f 25/23/23 24/34/23 34/37/23 35/38/23
f 26/24/24 25/23/24 35/38/24 36/39/24
f 19/26/25 18/25/25 28/40/25 29/41/25
f 17/28/26 1/42/26 27/43/26
f 6/44/27 26/24/27 36/39/27
f 20/30/28 19/26/28 29/41/28 30/45/28
f 21/31/29 20/30/29 30/45/29 31/46/29
f 22/32/30 21/31/30 31/46/30 32/35/30
f 27/43/31 1/47/31 37/48/31
f 6/49/32 36/39/32 46/50/32
f 30/45/33 29/41/33 39/51/33 40/52/33
f 31/46/34 30/45/34 40/52/34 41/53/34
f 32/35/35 31/46/35 41/53/35 42/54/35
f 33/36/36 32/35/36 42/54/36 43/55/36
f 34/37/37 33/36/37 43/55/37 44/56/37
f 35/38/38 34/37/38 44/56/38 45/57/38
f 36/39/39 35/38/39 45/57/39 46/50/39
f 29/41/40 28/40/40 38/58/40 39/51/40
f 44/56/41 43/55/41 53/59/41 54/60/41
f 45/57/42 44/56/42 54/60/42 55/61/42
f 46/50/43 45/57/43 55/61/43 56/62/43
f 39/51/44 38/58/44 48/63/44 49/64/44
f 37/48/45 1/65/45 47/66/45
f 6/67/46 46/50/46 56/62/46
f 40/52/47 39/51/47 49/64/47 50/68/47
f 41/53/48 40/52/48 50/68/48 51/69/48
f 42/54/49 41/53/49 51/69/49 52/70/49
f 43/55/50 42/54/50 52/70/50 53/59/50
f 50/68/51 49/64/51 59/71/51 60/72/51
f 51/69/52 50/68/52 60/72/52 61/73/52
f 52/70/53 51/69/53 61/73/53 62/74/53
f 53/59/54 52/70/54 62/74/54 63/75/54
f 54/60/55 53/59/55 63/75/55 64/76/55
f 55/61/56 54/60/56 64/76/56 65/77/56
f 56/62/57 55/61/57 65/77/57 66/78/57
f 49/64/58 48/63/58 58/79/58 59/71/58
f 47/66/59 1/80/59 57/81/59
f 6/82/60 56/62/60 66/78/60
f 64/76/61 63/75/61 73/83/61 74/84/61
f 65/77/62 64/76/62 74/84/62 75/85/62
f 66/78/63 65/77/63 75/85/63 76/86/63
f 59/71/64 58/79/64 68/87/64 69/88/64
f 57/81/65 1/89/65 67/90/65
f 6/91/66 66/78/66 76/86/66
f 60/72/67 59/71/67 69/88/67 70/92/67
f 61/73/68 60/72/68 70/92/68 71/93/68
f 62/74/69 61/73/69 71/93/69 72/94/69
f 63/75/70 62/74/70 72/94/70 73/83/70
f 71/93/71 70/92/71 80/95/71 81/96/71
f 72/94/72 71/93/72 81/96/72 82/97/72
f 73/83/73 72/94/73 82/97/73 83/98/73
f 74/84/74 73/83/74 83/98/74 84/99/74
f 75/85/75 74/84/75 84/99/75 85/100/75
f 76/86/76 75/85/76 85/100/76 86/101/76
f 69/88/77 68/87/77 78/102/77 79/103/77
f 67/90/78 1/104/78 77/105/78
f 6/106/79 76/86/79 86/101/79
f 70/92/80 69/88/80 79/103/80 80/95/80
f 85/100/81 84/99/81 94/107/81 95/108/81
f 86/101/82 85/100/82 95/108/82 96/109/82
f 79/103/83 78/102/83 88/110/83 89/111/83
f 77/105/84 1/112/84 87/113/84
f 6/114/85 86/101/85 96/109/85
f 80/95/86 79/103/86 89/111/86 90/115/86
f 81/96/87 80/95/87 90/115/87 91/116/87
f 82/97/88 81/96/88 91/116/88 92/117/88
f 83/98/89 82/97/89 92/117/89 93/118/89
f 84/99/90 83/98/90 93/118/90 94/107/90
f 91/116/91 90/115/91 100/119/91 101/120/91
f 92/117/92 91/116/92 101/120/92 102/121/92
f 93/118/93 92/117/93 102/121/93 103/122/93
f 94/107/94 93/118/94 103/122/94 104/123/94
f 95/108/95 94/107/95 104/123/95 105/124/95
f 96/109/96 95/108/96 105/124/96 106/125/96
f 89/111/97 88/110/97 98/126/97 99/127/97
f 87/113/98 1/128/98 97/129/98
f 6/130/99 96/109/99 106/125/99
f 90/115/100 89/111/100 99/127/100 100/119/100
f 105/124/101 104/123/101 114/131/101 115/132/101
f 106/125/102 105/124/102 115/132/102 116/133/102
f 99/127/103 98/126/103 108/134/103 109/135/103
f 97/129/104 1/136/104 107/137/104
f 6/138/105 106/125/105 116/133/105
f 100/119/106 99/127/106 109/135/106 110/139/106
f 101/120/107 100/119/107 110/139/107 111/140/107
f 102/121/108 101/120/108 111/140/108 112/141/108
f 103/122/109 102/121/109 112/141/109 113/142/109
f 104/123/110 103/122/110 113/142/110 114/131/110
f 112/141/111 111/140/111 121/143/111 122/144/111
f 113/142/112 112/141/112 122/144/112 123/145/112
f 114/131/113 113/142/113 123/145/113 124/146/113
f 115/132/114 114/131/114 124/146/114 125/147/114
f 116/133/115 115/132/115 125/147/115 126/148/115
f 109/135/116 108/134/116 118/149/116 119/150/116
f 107/137/117 1/151/117 117/152/117
f 6/153/118 116/133/118 126/148/118
f 110/139/119 109/135/119 119/150/119 120/154/119
f 111/140/120 110/139/120 120/154/120 121/143/120
f 126/148/121 125/147/121 135/155/121 136/156/121
f 119/150/122 118/149/122 128/157/122 129/158/122
f 117/152/123 1/159/123 127/160/123
f 6/161/124 126/148/124 136/156/124
f 120/154/125 119/150/125 129/158/125 130/162/125
f 121/143/126 120/154/126 130/162/126 131/163/126
f 122/144/127 121/143/127 131/163/127 132/164/127
f 123/145/128 122/144/128 132/164/128 133/165/128
f 124/146/129 123/145/129 133/165/129 134/166/129
f 125/147/130 124/146/130 134/166/130 135/155/130
f 133/165/131 132/164/131 142/167/131 143/168/131
f 134/166/132 133/165/132 143/168/132 144/169/132
f 135/155/133 134/166/133 144/169/133 145/170/133
f 136/156/134 135/155/134 145/170/134 146/171/134
f 129/158/135 128/157/135 138/172/135 139/173/135
f 127/160/136 1/174/136 137/175/136
f 6/176/137 136/156/137 146/171/137
f 130/162/138 129/158/138 139/173/138 140/177/138
f 131/163/139 130/162/139 140/177/139 141/178/139
f 132/164/140 131/163/140 141/178/140 142/167/140
f 139/173/141 138/172/141 148/179/141 149/180/141
f 137/175/142 1/181/142 147/182/142
f 6/183/143 146/171/143 156/184/143
f 140/177/144 139/173/144 149/180/144 150/185/144
f 141/178/145 140/177/145 150/185/145 151/186/145
f 142/167/146 141/178/146 151/186/146 152/187/146
f 143/168/147 142/167/147 152/187/147 153/188/147
f 144/169/148 143/168/148 153/188/148 154/189/148
f 145/170/149 144/169/149 154/189/149 155/190/149
f 146/171/150 145/170/150 155/190/150 156/184/150
f 153/188/151 152/187/151 162/191/151 163/192/151
f 154/189/152 153/188/152 163/192/152 164/193/152
f 155/190/153 154/189/153 164/193/153 165/194/153
f 156/184/154 155/190/154 165/194/154 166/195/154
f 149/180/155 148/179/155 158/196/155 159/197/155
f 147/182/156 1/198/156 157/199/156
f 6/200/157 156/184/157 166/195/157
f 150/185/158 149/180/158 159/197/158 160/201/158
f 151/186/159 150/185/159 160/201/159 161/202/159
f 152/187/160 151/186/160 161/202/160 162/191/160
f 157/199/161 1/203/161 167/204/161
f 6/205/162 166/195/162 176/206/162
f 160/201/163 159/197/163 169/207/163 170/208/163
f 161/202/164 160/201/164 170/208/164 171/209/164
f 162/191/165 161/202/165 171/209/165 172/210/165
f 163/192/166 162/191/166 172/210/166 173/211/166
f 164/193/167 163/192/167 173/211/167 174/212/167
f 165/194/168 164/193/168 174/212/168 175/213/168
f 166/195/169 165/194/169 175/213/169 176/206/169
f 159/197/170 158/196/170 168/214/170 169/207/170
f 174/212/171 173/211/171 183/215/171 184/216/171
f 175/213/172 174/212/172 184/216/172 185/217/172
f 176/206/173 175/213/173 185/217/173 186/218/173
f 169/207/174 168/214/174 178/219/174 179/220/174
f 167/204/175 1/221/175 177/222/175
f 6/223/176 176/206/176 186/218/176
f 170/208/177 169/207/177 179/220/177 180/224/177
f 171/209/178 170/208/178 180/224/178 181/225/178
f 172/210/179 171/209/179 181/225/179 182/226/179
f 173/211/180 172/210/180 182/226/180 183/215/180
f 180/224/181 179/220/181 189/227/181 190/228/181
f 181/225/182 180/224/182 190/228/182 191/229/182
f 182/226/183 181/225/183 191/229/183 192/230/183
f 183/215/184 182/226/184 192/230/184 193/231/184
f 184/216/185 183/215/185 193/231/185 194/232/185
f 185/217/186 184/216/186 194/232/186 195/233/186
f 186/218/187 185/217/187 195/233/187 196/234/187
f 179/220/188 178/219/188 188/235/188 189/227/188
f 177/222/189 1/236/189 187/237/189
f 6/238/190 186/218/190 196/234/190
f 194/232/191 193/231/191 203/239/191 204/240/191
f 195/233/192 194/232/192 204/240/192 205/241/192
f 196/234/193 195/233/193 205/241/193 206/242/193
f 189/227/194 188/235/194 198/243/194 199/244/194
f 187/237/195 1/245/195 197/246/195
f 6/247/196 196/234/196 206/242/196
f 190/228/197 189/227/197 199/244/197 200/248/197
f 191/229/198 190/228/198 200/248/198 201/249/198
f 192/230/199 191/229/199 201/249/199 202/250/199
f 193/231/200 192/230/200 202/250/200 203/239/200
f 201/249/201 200/248/201 210/251/201 211/252/201
f 202/250/202 201/249/202 211/252/202 212/253/202
f 203/239/203 202/250/203 212/253/203 213/254/203
f 204/240/204 203/239/204 213/254/204 214/255/204
f 205/241/205 204/240/205 214/255/205 215/256/205
f 206/242/206 205/241/206 215/256/206 216/257/206
f 199/244/207 198/243/207 208/258/207 209/259/207
f 197/246/208 1/260/208 207/261/208
f 6/262/209 206/242/209 216/257/209
f 200/248/210 199/244/210 209/259/210 210/251/210
f 215/256/211 214/255/211 224/263/211 225/264/211
f 216/257/212 215/256/212 225/264/212 226/265/212
f 209/259/213 208/258/213 218/266/213 219/267/213
f 207/261/214 1/268/214 217/269/214
f 6/270/215 216/257/215 226/265/215
f 210/251/216 209/259/216 219/267/216 220/271/216
f 211/252/217 210/251/217 220/271/217 221/272/217
f 47/66/218 57/81/218 362/81/218 355/66/218
f 212/253/219 211/252/219 221/272/219 222/273/219
f 227/274/220 237/275/220 488/275/220 481/274/220
f 213/254/221 212/253/221 222/273/221 223/276/221
f 107/137/222 117/152/222 404/152/222 397/137/222
f 214/255/223 213/254/223 223/276/223 224/263/223
f 298/277/224 288/278/224 529/278/224 536/277/224
f 17/28/225 27/43/225 341/43/225 334/28/225
f 222/273/226 221/272/226 231/279/226 232/280/226
f 137/175/227 147/182/227 425/182/227 418/175/227
f 223/276/228 222/273/228 232/280/228 233/281/228
f 208/258/229 198/243/229 466/243/229 473/258/229
f 224/263/230 223/276/230 233/281/230 234/282/230
f 8/18/231 2/17/231 326/17/231 333/18/231
f 225/264/232 224/263/232 234/282/232 235/283/232
f 148/179/233 138/172/233 424/172/233 431/179/233
f 226/265/234 225/264/234 235/283/234 236/284/234
f 219/267/235 218/266/235 228/285/235 229/286/235
f 217/269/236 1/287/236 227/274/236
f 6/288/237 226/265/237 236/284/237
f 220/271/238 219/267/238 229/286/238 230/289/238
f 118/149/239 108/134/239 403/134/239 410/149/239
f 221/272/240 220/271/240 230/289/240 231/279/240
f 2/17/241 308/290/241 543/290/241 326/17/241
f 236/284/242 235/283/242 245/291/242 246/292/242
f 229/286/243 228/285/243 238/293/243 239/294/243
f 227/274/244 1/295/244 237/275/244
f 6/296/245 236/284/245 246/292/245
f 230/289/246 229/286/246 239/294/246 240/297/246
f 297/298/233 307/299/233 537/299/233 530/298/233
f 231/279/247 230/289/247 240/297/247 241/300/247
f 87/113/248 97/129/248 390/129/248 383/113/248
f 232/280/249 231/279/249 241/300/249 242/301/249
f 28/40/250 18/25/250 340/25/250 347/40/250
f 233/281/251 232/280/251 242/301/251 243/302/251
f 207/261/252 217/269/252 474/269/252 467/261/252
f 234/282/253 233/281/253 243/302/253 244/303/253
f 238/293/254 228/285/254 487/285/254 494/293/254
f 235/283/255 234/282/255 244/303/255 245/291/255
f 242/304/256 241/305/256 251/306/256 252/307/256
f 117/152/257 127/160/257 411/160/257 404/152/257
f 243/308/258 242/304/258 252/307/258 253/309/258
f 188/235/225 178/219/225 452/219/225 459/235/225
f 244/310/259 243/308/259 253/309/259 254/311/259
f 128/157/260 118/149/260 410/149/260 417/157/260
f 245/312/261 244/310/261 254/311/261 255/313/261
f 308/290/227 298/277/227 536/277/227 543/290/227
f 246/314/262 245/312/262 255/313/262 256/315/262
f 239/316/263 238/317/263 248/318/263 249/319/263
f 237/320/264 1/321/264 247/322/264
f 6/323/265 246/314/265 256/315/265
f 240/324/266 239/316/266 249/319/266 250/325/266
f 98/126/267 88/110/267 389/110/267 396/126/267
f 241/305/268 240/324/268 250/325/268 251/306/268
f 277/326/260 287/327/260 523/327/260 516/326/260
f 256/315/269 255/313/269 265/328/269 266/329/269
f 249/319/270 248/318/270 258/330/270 259/331/270
f 247/322/271 1/332/271 257/333/271
f 6/334/272 256/315/272 266/329/272
f 250/325/273 249/319/273 259/331/273 260/335/273
f 187/237/274 197/246/274 460/246/274 453/237/274
f 251/306/275 250/325/275 260/335/275 261/336/275
f 218/266/218 208/258/218 473/258/218 480/266/218
f 252/307/276 251/306/276 261/336/276 262/337/276
f 27/43/277 37/48/277 348/48/277 341/43/277
f 253/309/278 252/307/278 262/337/278 263/338/278
f 97/129/279 107/137/279 397/137/279 390/129/279
f 254/311/280 253/309/280 263/338/280 264/339/280
f 7/21/281 17/28/281 334/28/281 327/21/281
f 255/313/282 254/311/282 264/339/282 265/328/282
f 288/278/257 278/340/257 522/340/257 529/278/257
f 287/327/283 297/298/283 530/298/283 523/327/283
f 263/338/284 262/337/284 272/341/284 273/342/284
f 168/214/285 158/196/285 438/196/285 445/214/285
f 264/339/286 263/338/286 273/342/286 274/343/286
f 18/25/287 8/18/287 333/18/287 340/25/287
f 265/328/288 264/339/288 274/343/288 275/344/288
f 198/243/277 188/235/277 459/235/277 466/243/277
f 266/329/289 265/328/289 275/344/289 276/345/289
f 259/331/290 258/330/290 268/346/290 269/347/290
f 257/333/291 1/348/291 267/349/291
f 6/350/292 266/329/292 276/345/292
f 260/335/293 259/331/293 269/347/293 270/351/293
f 78/102/220 68/87/220 375/87/220 382/102/220
f 261/336/294 260/335/294 270/351/294 271/352/294
f 257/333/295 267/349/295 509/349/295 502/333/295
f 262/337/296 261/336/296 271/352/296 272/341/296
f 269/347/297 268/346/297 278/340/297 279/353/297
f 267/349/298 1/354/298 277/326/298
f 6/355/299 276/345/299 286/356/299
f 270/351/300 269/347/300 279/353/300 280/357/300
f 167/204/287 177/222/287 446/222/287 439/204/287
f 271/352/301 270/351/301 280/357/301 281/358/301
f 108/134/295 98/126/295 396/126/295 403/134/295
f 272/341/302 271/352/302 281/358/302 282/359/302
f 77/105/303 87/113/303 383/113/303 376/105/303
f 273/342/304 272/341/304 282/359/304 283/360/304
f 268/346/279 258/330/279 508/330/279 515/346/279
f 274/343/305 273/342/305 283/360/305 284/361/305
f 178/219/281 168/214/281 445/214/281 452/219/281
f 275/344/306 274/343/306 284/361/306 285/362/306
f 177/222/250 187/237/250 453/237/250 446/222/250
f 276/345/307 275/344/307 285/362/307 286/356/307
f 283/360/308 282/359/308 292/363/308 293/364/308
f 58/79/252 48/63/252 361/63/252 368/79/252
f 284/361/309 283/360/309 293/364/309 294/365/309
f 237/320/310 247/322/310 495/322/310 488/320/310
f 285/362/311 284/361/311 294/365/311 295/366/311
f 88/110/310 78/102/310 382/102/310 389/110/310
f 286/356/312 285/362/312 295/366/312 296/367/312
f 279/353/313 278/340/313 288/278/313 289/368/313
f 277/326/314 1/369/314 287/327/314
f 6/370/315 286/356/315 296/367/315
f 280/357/316 279/353/316 289/368/316 290/371/316
f 147/182/241 157/199/241 432/199/241 425/182/241
f 281/358/317 280/357/317 290/371/317 291/372/317
f 307/299/318 317/19/318 544/19/318 537/299/318
f 282/359/319 281/358/319 291/372/319 292/363/319
f 267/349/239 277/326/239 516/326/239 509/349/239
f 6/373/320 296/367/320 306/374/320
f 290/371/321 289/368/321 299/375/321 300/376/321
f 57/81/322 67/90/322 369/90/322 362/81/322
f 291/372/323 290/371/323 300/376/323 301/377/323
f 278/340/222 268/346/222 515/346/222 522/340/222
f 292/363/324 291/372/324 301/377/324 302/378/324
f 248/318/303 238/317/303 494/317/303 501/318/303
f 293/364/325 292/363/325 302/378/325 303/379/325
f 158/196/318 148/179/318 431/179/318 438/196/318
f 294/365/326 293/364/326 303/379/326 304/380/326
f 38/58/274 28/40/274 347/40/274 354/58/274
f 295/366/327 294/365/327 304/380/327 305/381/327
f 217/269/328 227/274/328 481/274/328 474/269/328
f 296/367/329 295/366/329 305/381/329 306/374/329
f 289/368/330 288/278/330 298/277/330 299/375/330
f 287/327/331 1/382/331 297/298/331
f 304/380/332 303/379/332 313/383/332 314/384/332
f 68/87/328 58/79/328 368/79/328 375/87/328
f 305/381/333 304/380/333 314/384/333 315/385/333
f 247/322/267 257/333/267 502/333/267 495/322/267
f 306/374/334 305/381/334 315/385/334 316/386/334
f 299/375/335 298/277/335 308/290/335 309/387/335
f 297/298/336 1/388/336 307/299/336
f 6/389/337 306/374/337 316/386/337
f 300/376/338 299/375/338 309/387/338 310/390/338
f 127/160/224 137/175/224 418/175/224 411/160/224
f 301/377/339 300/376/339 310/390/339 311/391/339
f 67/90/254 77/105/254 376/105/254 369/90/254
f 302/378/340 301/377/340 311/391/340 312/392/340
f 258/330/248 248/318/248 501/318/248 508/330/248
f 303/379/341 302/378/341 312/392/341 313/383/341
f 37/48/229 47/66/229 355/66/229 348/48/229
f 317/19/285 7/21/285 327/21/285 544/19/285
f 311/391/342 310/390/342 4/1/342 318/5/342
f 228/285/322 218/266/322 480/266/322 487/285/322
f 312/392/343 311/391/343 318/5/343 5/7/343
f 157/199/231 167/204/231 439/204/231 432/199/231
f 313/383/344 312/392/344 5/7/344 319/9/344
f 138/172/283 128/157/283 417/157/283 424/172/283
f 314/384/345 313/383/345 319/9/345 320/11/345
f 197/246/346 207/261/346 467/261/346 460/246/346
f 315/385/347 314/384/347 320/11/347 321/13/347
f 48/63/346 38/58/346 354/58/346 361/63/346
f 316/386/348 315/385/348 321/13/348 322/15/348
f 309/387/349 308/290/349 2/17/349 3/2/349
f 307/299/350 1/393/350 317/19/350
f 6/394/351 316/386/351 322/15/351
f 310/390/352 309/387/352 3/2/352 4/1/352
f 545/395/353 544/19/353 327/21/353 328/396/353
f 324/397/354 545/395/354 328/396/354 329/398/354
f 546/399/355 324/397/355 329/398/355 330/400/355
f 325/401/356 546/399/356 330/400/356 331/402/356
f 547/403/357 325/401/357 331/402/357 332/404/357
f 326/17/358 547/403/358 332/404/358 333/18/358
f 328/396/359 327/21/359 334/28/359 335/405/359
f 329/398/360 328/396/360 335/405/360 336/406/360
f 330/400/361 329/398/361 336/406/361 337/407/361
f 331/402/362 330/400/362 337/407/362 338/408/362
f 332/404/363 331/402/363 338/408/363 339/409/363
f 333/18/364 332/404/364 339/409/364 340/25/364
f 338/408/365 337/407/365 344/410/365 345/411/365
f 339/409/366 338/408/366 345/411/366 346/412/366
f 340/25/367 339/409/367 346/412/367 347/40/367
f 335/405/368 334/28/368 341/43/368 342/413/368
f 336/406/369 335/405/369 342/413/369 343/414/369
f 337/407/370 336/406/370 343/414/370 344/410/370
f 342/413/371 341/43/371 348/48/371 349/415/371
f 343/414/372 342/413/372 349/415/372 350/416/372
f 344/410/373 343/414/373 350/416/373 351/417/373
f 345/411/374 344/410/374 351/417/374 352/418/374
f 346/412/375 345/411/375 352/418/375 353/419/375
f 347/40/376 346/412/376 353/419/376 354/58/376
f 352/418/377 351/417/377 358/420/377 359/421/377
f 353/419/378 352/418/378 359/421/378 360/422/378
f 354/58/379 353/419/379 360/422/379 361/63/379
f 349/415/380 348/48/380 355/66/380 356/423/380
f 350/416/381 349/415/381 356/423/381 357/424/381
f 351/417/382 350/416/382 357/424/382 358/420/382
f 356/423/383 355/66/383 362/81/383 363/425/383
f 357/424/384 356/423/384 363/425/384 364/426/384
f 358/420/385 357/424/385 364/426/385 365/427/385
f 359/421/386 358/420/386 365/427/386 366/428/386
f 360/422/387 359/421/387 366/428/387 367/429/387
f 361/63/388 360/422/388 367/429/388 368/79/388
f 367/429/389 366/428/389 373/430/389 374/431/389
f 368/79/390 367/429/390 374/431/390 375/87/390
f 363/425/391 362/81/391 369/90/391 370/432/391
f 364/426/392 363/425/392 370/432/392 371/433/392
f 365/427/393 364/426/393 371/433/393 372/434/393
f 366/428/394 365/427/394 372/434/394 373/430/394
f 370/432/395 369/90/395 376/105/395 377/435/395
f 371/433/396 370/432/396 377/435/396 378/436/396
f 372/434/397 371/433/397 378/436/397 379/437/397
f 373/430/398 372/434/398 379/437/398 380/438/398
f 374/431/399 373/430/399 380/438/399 381/439/399
f 375/87/400 374/431/400 381/439/400 382/102/400
f 381/439/401 380/438/401 387/440/401 388/441/401
f 382/102/402 381/439/402 388/441/402 389/110/402
f 377/435/403 376/105/403 383/113/403 384/442/403
f 378/436/404 377/435/404 384/442/404 385/443/404
f 379/437/405 378/436/405 385/443/405 386/444/405
f 380/438/406 379/437/406 386/444/406 387/440/406
f 385/443/407 384/442/407 391/445/407 392/446/407
f 386/444/408 385/443/408 392/446/408 393/447/408
f 387/440/409 386/444/409 393/447/409 394/448/409
f 388/441/410 387/440/410 394/448/410 395/449/410
f 389/110/411 388/441/411 395/449/411 396/126/411
f 384/442/412 383/113/412 390/129/412 391/445/412
f 396/126/413 395/449/413 402/450/413 403/134/413
f 391/445/414 390/129/414 397/137/414 398/451/414
f 392/446/415 391/445/415 398/451/415 399/452/415
f 393/447/416 392/446/416 399/452/416 400/453/416
f 394/448/417 393/447/417 400/453/417 401/454/417
f 395/449/418 394/448/418 401/454/418 402/450/418
f 400/453/419 399/452/419 406/455/419 407/456/419
f 401/454/420 400/453/420 407/456/420 408/457/420
f 402/450/421 401/454/421 408/457/421 409/458/421
f 403/134/422 402/450/422 409/458/422 410/149/422
f 398/451/423 397/137/423 404/152/423 405/459/423
f 399/452/424 398/451/424 405/459/424 406/455/424
f 405/459/425 404/152/425 411/160/425 412/460/425
f 406/455/426 405/459/426 412/460/426 413/461/426
f 407/456/427 406/455/427 413/461/427 414/462/427
f 408/457/428 407/456/428 414/462/428 415/463/428
f 409/458/429 408/457/429 415/463/429 416/464/429
f 410/149/430 409/458/430 416/464/430 417/157/430
f 414/462/431 413/461/431 420/465/431 421/466/431
f 415/463/432 414/462/432 421/466/432 422/467/432
f 416/464/433 415/463/433 422/467/433 423/468/433
f 417/157/434 416/464/434 423/468/434 424/172/434
f 412/460/435 411/160/435 418/175/435 419/469/435
f 413/461/436 412/460/436 419/469/436 420/465/436
f 419/469/437 418/175/437 425/182/437 426/470/437
f 420/465/438 419/469/438 426/470/438 427/471/438
f 421/466/439 420/465/439 427/471/439 428/472/439
f 422/467/440 421/466/440 428/472/440 429/473/440
f 423/468/441 422/467/441 429/473/441 430/474/441
f 424/172/442 423/468/442 430/474/442 431/179/442
f 429/473/443 428/472/443 435/475/443 436/476/443
f 430/474/444 429/473/444 436/476/444 437/477/444
f 431/179/445 430/474/445 437/477/445 438/196/445
f 426/470/446 425/182/446 432/199/446 433/478/446
f 427/471/447 426/470/447 433/478/447 434/479/447
f 428/472/448 427/471/448 434/479/448 435/475/448
f 433/478/449 432/199/449 439/204/449 440/480/449
f 434/479/450 433/478/450 440/480/450 441/481/450
f 435/475/451 434/479/451 441/481/451 442/482/451
f 436/476/452 435/475/452 442/482/452 443/483/452
f 437/477/453 436/476/453 443/483/453 444/484/453
f 438/196/454 437/477/454 444/484/454 445/214/454
f 443/483/455 442/482/455 449/485/455 450/486/455
f 444/484/456 443/483/456 450/486/456 451/487/456
f 445/214/457 444/484/457 451/487/457 452/219/457
f 440/480/458 439/204/458 446/222/458 447/488/458
f 441/481/459 440/480/459 447/488/459 448/489/459
f 442/482/460 441/481/460 448/489/460 449/485/460
f 447/488/461 446/222/461 453/237/461 454/490/461
f 448/489/462 447/488/462 454/490/462 455/491/462
f 449/485/463 448/489/463 455/491/463 456/492/463
f 450/486/464 449/485/464 456/492/464 457/493/464
f 451/487/465 450/486/465 457/493/465 458/494/465
f 452/219/466 451/487/466 458/494/466 459/235/466
f 458/494/467 457/493/467 464/495/467 465/496/467
f 459/235/468 458/494/468 465/496/468 466/243/468
f 454/490/469 453/237/469 460/246/469 461/497/469
f 455/491/470 454/490/470 461/497/470 462/498/470
f 456/492/471 455/491/471 462/498/471 463/499/471
f 457/493/472 456/492/472 463/499/472 464/495/472
f 462/498/473 461/497/473 468/500/473 469/501/473
f 463/499/474 462/498/474 469/501/474 470/502/474
f 464/495/475 463/499/475 470/502/475 471/503/475
f 465/496/476 464/495/476 471/503/476 472/504/476
f 466/243/477 465/496/477 472/504/477 473/258/477
f 461/497/478 460/246/478 467/261/478 468/500/478
f 473/258/479 472/504/479 479/505/479 480/266/479
f 468/500/480 467/261/480 474/269/480 475/506/480
f 469/501/481 468/500/481 475/506/481 476/507/481
f 470/502/482 469/501/482 476/507/482 477/508/482
f 471/503/483 470/502/483 477/508/483 478/509/483
f 472/504/484 471/503/484 478/509/484 479/505/484
f 476/507/485 475/506/485 482/510/485 483/511/485
f 477/508/486 476/507/486 483/511/486 484/512/486
f 478/509/487 477/508/487 484/512/487 485/513/487
f 479/505/488 478/509/488 485/513/488 486/514/488
f 480/266/489 479/505/489 486/514/489 487/285/489
f 475/506/490 474/269/490 481/274/490 482/510/490
f 487/285/491 486/514/491 493/515/491 494/293/491
f 482/510/492 481/274/492 488/275/492 489/516/492
f 483/511/493 482/510/493 489/516/493 490/517/493
f 484/512/494 483/511/494 490/517/494 491/518/494
f 485/513/495 484/512/495 491/518/495 492/519/495
f 486/514/496 485/513/496 492/519/496 493/515/496
f 491/520/497 490/521/497 497/522/497 498/523/497
f 492/524/498 491/520/498 498/523/498 499/525/498
f 493/526/499 492/524/499 499/525/499 500/527/499
f 494/317/500 493/526/500 500/527/500 501/318/500
f 489/528/501 488/320/501 495/322/501 496/529/501
f 490/521/502 489/528/502 496/529/502 497/522/502
f 496/529/503 495/322/503 502/333/503 503/530/503
f 497/522/504 496/529/504 503/530/504 504/531/504
f 498/523/505 497/522/505 504/531/505 505/532/505
f 499/525/506 498/523/506 505/532/506 506/533/506
f 500/527/507 499/525/507 506/533/507 507/534/507
f 501/318/508 500/527/508 507/534/508 508/330/508
f 505/532/509 504/531/509 511/535/509 512/536/509
f 506/533/510 505/532/510 512/536/510 513/537/510
f 507/534/511 506/533/511 513/537/511 514/538/511
f 508/330/512 507/534/512 514/538/512 515/346/512
f 503/530/513 502/333/513 509/349/513 510/539/513
f 504/531/514 503/530/514 510/539/514 511/535/514
f 510/539/515 509/349/515 516/326/515 517/540/515
f 511/535/516 510/539/516 517/540/516 518/541/516
f 512/536/517 511/535/517 518/541/517 519/542/517
f 513/537/518 512/536/518 519/542/518 520/543/518
f 514/538/519 513/537/519 520/543/519 521/544/519
f 515/346/520 514/538/520 521/544/520 522/340/520
f 520/543/521 519/542/521 526/545/521 527/546/521
f 521/544/522 520/543/522 527/546/522 528/547/522
f 522/340/523 521/544/523 528/547/523 529/278/523
f 517/540/524 516/326/524 523/327/524 524/548/524
f 518/541/525 517/540/525 524/548/525 525/549/525
f 519/542/526 518/541/526 525/549/526 526/545/526
f 524/548/527 523/327/527 530/298/527 531/550/527
f 525/549/528 524/548/528 531/550/528 532/551/528
f 526/545/529 525/549/529 532/551/529 533/552/529
f 527/546/530 526/545/530 533/552/530 534/553/530
f 528/547/531 527/546/531 534/553/531 535/554/531
f 529/278/532 528/547/532 535/554/532 536/277/532
f 535/554/533 534/553/533 541/555/533 542/556/533
f 536/277/534 535/554/534 542/556/534 543/290/534
f 531/550/535 530/298/535 537/299/535 538/557/535
f 532/551/536 531/550/536 538/557/536 539/558/536
f 533/552/537 532/551/537 539/558/537 540/559/537
f 534/553/538 533/552/538 540/559/538 541/555/538
f 538/557/539 537/299/539 544/19/539 545/395/539
f 539/558/540 538/557/540 545/395/540 324/397/540
f 540/559/541 539/558/541 324/397/541 546/399/541
f 541/555/542 540/559/542 546/399/542 325/401/542
f 542/556/543 541/555/543 325/401/543 547/403/543
f 543/290/544 542/556/544 547/403/544 326/17/544
l 323 548
l 1 323
