# Blender 5.2.1 LTS
# www.blender.org
mtllib tree.mtl
o Cylinder
v -0.000000 -0.250000 -0.489113
v 0.000000 4.250000 -0.194050
v 0.345855 -0.250000 -0.345855
v 0.137214 4.250000 -0.137214
v 0.489113 -0.250000 0.000000
v 0.194050 4.250000 0.000000
v 0.345855 -0.250000 0.345855
v 0.137214 4.250000 0.137214
v -0.000000 -0.250000 0.489113
v 0.000000 4.250000 0.194050
v -0.345855 -0.250000 0.345855
v -0.137214 4.250000 0.137214
v -0.489113 -0.250000 0.000000
v -0.194050 4.250000 0.000000
v -0.345855 -0.250000 -0.345855
v -0.137214 4.250000 -0.137214
v -0.000000 0.253411 -0.456104
v -0.000000 0.753411 -0.423320
v -0.000000 1.253411 -0.390535
v -0.000000 1.753411 -0.357750
v -0.000000 2.253411 -0.324966
v -0.000000 2.753411 -0.292181
v 0.000000 3.253411 -0.259396
v 0.000000 3.753411 -0.226611
v 0.160238 3.753411 -0.160238
v 0.183421 3.253411 -0.183421
v 0.206603 2.753411 -0.206603
v 0.229785 2.253411 -0.229785
v 0.252968 1.753411 -0.252968
v 0.276150 1.253411 -0.276150
v 0.299332 0.753411 -0.299332
v 0.322515 0.253411 -0.322515
v 0.226611 3.753411 0.000000
v 0.259396 3.253411 0.000000
v 0.292181 2.753411 0.000000
v 0.324966 2.253411 0.000000
v 0.357750 1.753411 0.000000
v 0.390535 1.253411 0.000000
v 0.423320 0.753411 0.000000
v 0.456105 0.253411 0.000000
v 0.160238 3.753411 0.160238
v 0.183421 3.253411 0.183421
v 0.206603 2.753411 0.206603
v 0.229785 2.253411 0.229785
v 0.252968 1.753411 0.252968
v 0.276150 1.253411 0.276150
v 0.299332 0.753411 0.299332
v 0.322515 0.253411 0.322515
v 0.000000 3.753411 0.226611
v 0.000000 3.253411 0.259396
v -0.000000 2.753411 0.292181
v -0.000000 2.253411 0.324966
v -0.000000 1.753411 0.357750
v -0.000000 1.253411 0.390535
v -0.000000 0.753411 0.423320
v -0.000000 0.253411 0.456105
v -0.160238 3.753411 0.160238
v -0.183421 3.253411 0.183421
v -0.206603 2.753411 0.206603
v -0.229785 2.253411 0.229785
v -0.252968 1.753411 0.252968
v -0.276150 1.253411 0.276150
v -0.299332 0.753411 0.299332
v -0.322515 0.253411 0.322515
v -0.226611 3.753411 0.000000
v -0.259396 3.253411 0.000000
v -0.292181 2.753411 0.000000
v -0.324966 2.253411 0.000000
v -0.357750 1.753411 0.000000
v -0.390535 1.253411 0.000000
v -0.423320 0.753411 0.000000
v -0.456105 0.253411 0.000000
v -0.160238 3.753411 -0.160238
v -0.183421 3.253411 -0.183421
v -0.206603 2.753411 -0.206603
v -0.229785 2.253411 -0.229785
v -0.252968 1.753411 -0.252968
v -0.276150 1.253411 -0.276150
v -0.299332 0.753411 -0.299332
v -0.322515 0.253411 -0.322515
v 1.377687 3.211528 -0.116393
v 1.547378 2.943032 -0.131103
v 1.419591 3.235370 -0.000000
v 1.594577 2.969887 0.000000
v 1.377687 3.211528 0.116393
v 1.547377 2.943032 0.131103
v 2.612093 3.921774 -0.053561
v 2.690181 3.798217 -0.060331
v 2.631376 3.932746 0.000000
v 2.711901 3.810575 0.000000
v 2.612092 3.921774 0.053562
v 2.690181 3.798217 0.060332
vn 0.3820 0.0605 -0.9222
vn 0.9222 0.0605 -0.3820
vn 0.9222 0.0605 0.3820
vn 0.3820 0.0605 0.9222
vn -0.3820 0.0605 0.9222
vn -0.9222 0.0605 0.3820
vn -0.0000 1.0000 -0.0000
vn -0.9222 0.0605 -0.3820
vn -0.3820 0.0605 -0.9222
vn -0.0000 -1.0000 -0.0000
vn 0.1513 -0.9883 0.0191
vn 0.0279 0.9955 0.0901
vn 0.0142 0.0636 0.9979
vn -0.4988 0.8667 -0.0020
vn 0.0524 0.0623 -0.9967
vn 0.1513 -0.9883 -0.0191
vn 0.0279 0.9955 -0.0901
vn 0.0524 0.0623 0.9967
vn 0.7716 0.5086 0.3820
vn 0.7716 0.5086 -0.3820
vn 0.0142 0.0636 -0.9979
vn 0.6004 -0.7980 -0.0527
vn 0.6004 -0.7980 0.0527
vn -0.4988 0.8667 0.0020
vt 1.000000 0.944823
vt 1.000000 1.000000
vt 0.875000 1.000000
vt 0.875000 0.944823
vt 0.750000 1.000000
vt 0.750000 0.944823
vt 0.625000 1.000000
vt 0.625000 0.944823
vt 0.500000 1.000000
vt 0.500000 0.944823
vt 0.375000 1.000000
vt 0.375000 0.944823
vt 0.250000 1.000000
vt 0.250000 0.944823
vt 0.419706 0.419706
vt 0.250000 0.490000
vt 0.080294 0.419706
vt 0.010000 0.250000
vt 0.080294 0.080294
vt 0.250000 0.010000
vt 0.419706 0.080294
vt 0.490000 0.250000
vt 0.125000 1.000000
vt 0.125000 0.944823
vt 0.000000 1.000000
vt 0.000000 0.944823
vt 0.750000 0.490000
vt 0.919706 0.419706
vt 0.990000 0.250000
vt 0.919706 0.080294
vt 0.750000 0.010000
vt 0.580294 0.080294
vt 0.510000 0.250000
vt 0.580294 0.419706
vt 0.125000 0.500000
vt 0.125000 0.555934
vt 0.000000 0.555934
vt 0.000000 0.500000
vt 0.125000 0.611490
vt 0.000000 0.611490
vt 0.125000 0.667046
vt 0.000000 0.667046
vt 0.125000 0.722601
vt 0.000000 0.722601
vt 0.125000 0.778157
vt 0.000000 0.778157
vt 0.125000 0.833712
vt 0.000000 0.833712
vt 0.125000 0.889268
vt 0.000000 0.889268
vt 0.250000 0.500000
vt 0.250000 0.555935
vt 0.250000 0.611490
vt 0.250000 0.667046
vt 0.250000 0.722601
vt 0.250000 0.778157
vt 0.250000 0.833712
vt 0.250000 0.889268
vt 0.375000 0.500000
vt 0.375000 0.555935
vt 0.375000 0.611490
vt 0.375000 0.667046
vt 0.375000 0.722601
vt 0.375000 0.778157
vt 0.375000 0.833712
vt 0.375000 0.889268
vt 0.500000 0.500000
vt 0.500000 0.555935
vt 0.500000 0.611490
vt 0.500000 0.667046
vt 0.500000 0.722601
vt 0.500000 0.778157
vt 0.500000 0.833712
vt 0.500000 0.889268
vt 0.625000 0.500000
vt 0.625000 0.555935
vt 0.625000 0.611490
vt 0.625000 0.667046
vt 0.625000 0.722601
vt 0.625000 0.778157
vt 0.625000 0.833712
vt 0.625000 0.889268
vt 0.750000 0.500000
vt 0.750000 0.555935
vt 0.750000 0.611490
vt 0.750000 0.667046
vt 0.750000 0.722601
vt 0.750000 0.778157
vt 0.750000 0.833712
vt 0.875000 0.833712
vt 0.750000 0.889268
vt 0.875000 0.500000
vt 0.875000 0.555934
vt 0.875000 0.611490
vt 0.875000 0.667046
vt 0.875000 0.722601
vt 0.875000 0.778157
vt 0.875000 0.889268
vt 1.000000 0.500000
vt 1.000000 0.555934
vt 1.000000 0.611490
vt 1.000000 0.667046
vt 1.000000 0.722601
vt 1.000000 0.778157
vt 1.000000 0.833712
vt 1.000000 0.889268
s 0
f 24/1/1 2/2/1 4/3/1 25/4/1
f 25/4/2 4/3/2 6/5/2 33/6/2
f 33/6/3 6/5/3 8/7/3 41/8/3
f 41/8/4 8/7/4 10/9/4 49/10/4
f 49/10/5 10/9/5 12/11/5 57/12/5
f 57/12/6 12/11/6 14/13/6 65/14/6
f 4/15/7 2/16/7 16/17/7 14/18/7 12/19/7 10/20/7 8/21/7 6/22/7
f 65/14/8 14/13/8 16/23/8 73/24/8
f 73/24/9 16/23/9 2/25/9 24/26/9
f 1/27/10 3/28/10 5/29/10 7/30/10 9/31/10 11/32/10 13/33/10 15/34/10
f 15/35/9 80/36/9 17/37/9 1/38/9
f 80/36/9 79/39/9 18/40/9 17/37/9
f 79/39/9 78/41/9 19/42/9 18/40/9
f 78/41/9 77/43/9 20/44/9 19/42/9
f 77/43/9 76/45/9 21/46/9 20/44/9
f 76/45/9 75/47/9 22/48/9 21/46/9
f 75/47/9 74/49/9 23/50/9 22/48/9
f 74/49/9 73/24/9 24/26/9 23/50/9
f 13/51/8 72/52/8 80/36/8 15/35/8
f 72/52/8 71/53/8 79/39/8 80/36/8
f 71/53/8 70/54/8 78/41/8 79/39/8
f 70/54/8 69/55/8 77/43/8 78/41/8
f 69/55/8 68/56/8 76/45/8 77/43/8
f 68/56/8 67/57/8 75/47/8 76/45/8
f 67/57/8 66/58/8 74/49/8 75/47/8
f 66/58/8 65/14/8 73/24/8 74/49/8
f 11/59/6 64/60/6 72/52/6 13/51/6
f 64/60/6 63/61/6 71/53/6 72/52/6
f 63/61/6 62/62/6 70/54/6 71/53/6
f 62/62/6 61/63/6 69/55/6 70/54/6
f 61/63/6 60/64/6 68/56/6 69/55/6
f 60/64/6 59/65/6 67/57/6 68/56/6
f 59/65/6 58/66/6 66/58/6 67/57/6
f 58/66/6 57/12/6 65/14/6 66/58/6
f 9/67/5 56/68/5 64/60/5 11/59/5
f 56/68/5 55/69/5 63/61/5 64/60/5
f 55/69/5 54/70/5 62/62/5 63/61/5
f 54/70/5 53/71/5 61/63/5 62/62/5
f 53/71/5 52/72/5 60/64/5 61/63/5
f 52/72/5 51/73/5 59/65/5 60/64/5
f 51/73/5 50/74/5 58/66/5 59/65/5
f 50/74/5 49/10/5 57/12/5 58/66/5
f 7/75/4 48/76/4 56/68/4 9/67/4
f 48/76/4 47/77/4 55/69/4 56/68/4
f 47/77/4 46/78/4 54/70/4 55/69/4
f 46/78/4 45/79/4 53/71/4 54/70/4
f 45/79/4 44/80/4 52/72/4 53/71/4
f 44/80/4 43/81/4 51/73/4 52/72/4
f 43/81/4 42/82/4 50/74/4 51/73/4
f 42/82/4 41/8/4 49/10/4 50/74/4
f 5/83/3 40/84/3 48/76/3 7/75/3
f 40/84/3 39/85/3 47/77/3 48/76/3
f 39/85/3 38/86/3 46/78/3 47/77/3
f 38/86/3 37/87/3 45/79/3 46/78/3
f 37/87/3 36/88/3 44/80/3 45/79/3
f 36/88/3 35/89/3 43/81/3 44/80/3
f 35/89/11 27/90/11 82/90/11 84/89/11
f 34/91/3 33/6/3 41/8/3 42/82/3
f 3/92/2 32/93/2 40/84/2 5/83/2
f 32/93/2 31/94/2 39/85/2 40/84/2
f 31/94/2 30/95/2 38/86/2 39/85/2
f 30/95/2 29/96/2 37/87/2 38/86/2
f 29/96/2 28/97/2 36/88/2 37/87/2
f 28/97/2 27/90/2 35/89/2 36/88/2
f 34/91/12 42/82/12 85/82/12 83/91/12
f 26/98/2 25/4/2 33/6/2 34/91/2
f 1/99/1 17/100/1 32/93/1 3/92/1
f 17/100/1 18/101/1 31/94/1 32/93/1
f 18/101/1 19/102/1 30/95/1 31/94/1
f 19/102/1 20/103/1 29/96/1 30/95/1
f 20/103/1 21/104/1 28/97/1 29/96/1
f 21/104/1 22/105/1 27/90/1 28/97/1
f 22/105/1 23/106/1 26/98/1 27/90/1
f 23/106/1 24/1/1 25/4/1 26/98/1
f 85/82/13 86/81/13 92/81/13 91/82/13
f 83/91/14 85/82/14 91/82/14 89/91/14
f 27/90/15 26/98/15 81/98/15 82/90/15
f 43/81/16 35/89/16 84/89/16 86/81/16
f 26/98/17 34/91/17 83/91/17 81/98/17
f 42/82/18 43/81/18 86/81/18 85/82/18
f 90/89/19 89/91/19 91/82/19 92/81/19
f 88/90/20 87/98/20 89/91/20 90/89/20
f 82/90/21 81/98/21 87/98/21 88/90/21
f 84/89/22 82/90/22 88/90/22 90/89/22
f 86/81/23 84/89/23 90/89/23 92/81/23
f 81/98/24 83/91/24 89/91/24 87/98/24
o Icosphere
v 0.000000 3.003465 0.000000
v 1.082903 3.830720 0.786766
v -0.413624 3.830720 1.273026
v -1.338540 3.830726 0.000000
v -0.413624 3.830720 -1.273026
v 1.082903 3.830720 -0.786766
v 0.413624 5.169280 1.273026
v -1.082903 5.169280 0.786766
v -1.082903 5.169280 -0.786766
v 0.413624 5.169280 -1.273026
v 1.338540 5.169274 0.000000
v 0.000000 5.996535 0.000000
v -0.243120 3.226966 0.748260
v 0.636510 3.226966 0.462446
v 0.393392 3.713215 1.210714
v 1.273024 3.713218 0.000000
v 0.636510 3.226966 -0.462446
v -0.786773 3.226970 0.000000
v -1.029899 3.713217 0.748263
v -0.243120 3.226966 -0.748260
v -1.029899 3.713217 -0.748263
v 0.393392 3.713215 -1.210714
v 1.423291 4.500000 0.462448
v 1.423291 4.500000 -0.462448
v 0.000000 4.500000 1.496535
v 0.879642 4.500000 1.210722
v -1.423291 4.500000 0.462448
v -0.879642 4.500000 1.210722
v -0.879642 4.500000 -1.210722
v -1.423291 4.500000 -0.462448
v 0.879642 4.500000 -1.210722
v 0.000000 4.500000 -1.496535
v 1.029899 5.286782 0.748263
v -0.393392 5.286785 1.210714
v -1.273024 5.286782 0.000000
v -0.393392 5.286785 -1.210714
v 1.029899 5.286782 -0.748263
v 0.243120 5.773034 0.748260
v 0.786773 5.773030 0.000000
v -0.636510 5.773034 0.462446
v -0.636510 5.773034 -0.462446
v 0.243120 5.773034 -0.748260
vn 0.1024 -0.9435 0.3151
vn 0.7002 -0.6617 0.2680
vn -0.2680 -0.9435 0.1947
vn -0.2680 -0.9435 -0.1947
vn 0.1024 -0.9435 -0.3151
vn 0.9050 -0.3304 0.2680
vn 0.0247 -0.3304 0.9435
vn -0.8897 -0.3304 0.3151
vn -0.5746 -0.3304 -0.7488
vn 0.5346 -0.3304 -0.7779
vn 0.8026 -0.1256 0.5831
vn -0.3066 -0.1256 0.9435
vn -0.9921 -0.1256 -0.0000
vn -0.3066 -0.1256 -0.9435
vn 0.8026 -0.1256 -0.5831
vn 0.4089 0.6617 0.6284
vn -0.4713 0.6617 0.5831
vn -0.7002 0.6617 -0.2680
vn 0.0385 0.6617 -0.7488
vn 0.7240 0.6617 -0.1947
vn 0.2680 0.9435 -0.1947
vn 0.4911 0.7947 -0.3568
vn 0.4089 0.6617 -0.6284
vn -0.1024 0.9435 -0.3151
vn -0.1876 0.7947 -0.5773
vn -0.4713 0.6617 -0.5831
vn -0.3313 0.9435 -0.0000
vn -0.6071 0.7947 -0.0000
vn -0.7002 0.6617 0.2680
vn -0.1024 0.9435 0.3151
vn -0.1876 0.7947 0.5773
vn 0.0385 0.6617 0.7488
vn 0.2680 0.9435 0.1947
vn 0.4911 0.7947 0.3568
vn 0.7240 0.6617 0.1947
vn 0.8897 0.3304 -0.3151
vn 0.7947 0.1876 -0.5773
vn 0.5746 0.3304 -0.7488
vn -0.0247 0.3304 -0.9435
vn -0.3035 0.1876 -0.9342
vn -0.5346 0.3304 -0.7779
vn -0.9050 0.3304 -0.2680
vn -0.9822 0.1876 -0.0000
vn -0.9050 0.3304 0.2680
vn -0.5346 0.3304 0.7779
vn -0.3035 0.1876 0.9342
vn -0.0247 0.3304 0.9435
vn 0.5746 0.3304 0.7488
vn 0.7947 0.1876 0.5773
vn 0.8897 0.3304 0.3151
vn 0.3066 0.1256 -0.9435
vn 0.3035 -0.1876 -0.9342
vn 0.0247 -0.3304 -0.9435
vn -0.8026 0.1256 -0.5831
vn -0.7947 -0.1876 -0.5773
vn -0.8897 -0.3304 -0.3151
vn -0.8026 0.1256 0.5831
vn -0.7947 -0.1876 0.5773
vn -0.5746 -0.3304 0.7488
vn 0.3066 0.1256 0.9435
vn 0.3035 -0.1876 0.9342
vn 0.5346 -0.3304 0.7779
vn 0.9921 0.1256 -0.0000
vn 0.9822 -0.1876 -0.0000
vn 0.9050 -0.3304 -0.2680
vn 0.4713 -0.6617 -0.5831
vn 0.1876 -0.7947 -0.5773
vn -0.0385 -0.6617 -0.7488
vn -0.4089 -0.6617 -0.6284
vn -0.4911 -0.7947 -0.3568
vn -0.7240 -0.6617 -0.1947
vn -0.7240 -0.6617 0.1947
vn -0.4911 -0.7947 0.3568
vn -0.4089 -0.6617 0.6284
vn 0.7002 -0.6617 -0.2680
vn 0.6071 -0.7947 -0.0000
vn 0.3313 -0.9435 -0.0000
vn -0.0385 -0.6617 0.7488
vn 0.1876 -0.7947 0.5773
vn 0.4713 -0.6617 0.5831
vt 0.181819 0.000000
vt 0.227273 0.078731
vt 0.136365 0.078731
vt 0.272728 0.157461
vt 0.318182 0.078731
vt 0.363637 0.157461
vt 0.909091 0.000000
vt 0.954545 0.078731
vt 0.863636 0.078731
vt 0.727273 0.000000
vt 0.772727 0.078731
vt 0.681818 0.078731
vt 0.545455 0.000000
vt 0.590909 0.078731
vt 0.500000 0.078731
vt 0.318182 0.236191
vt 0.090910 0.157461
vt 0.181819 0.157461
vt 0.136365 0.236191
vt 0.818182 0.157461
vt 0.909091 0.157461
vt 0.863636 0.236191
vt 0.636364 0.157461
vt 0.727273 0.157461
vt 0.681818 0.236191
vt 0.454546 0.157461
vt 0.545455 0.157461
vt 0.500000 0.236191
vt 0.227273 0.236191
vt 0.045455 0.236191
vt 0.772727 0.236191
vt 0.590909 0.236191
vt 0.409092 0.236191
vt 0.181819 0.314921
vt 0.272728 0.314921
vt 0.227273 0.393651
vt 0.000000 0.314921
vt 0.090910 0.314921
vt 0.045455 0.393651
vt 0.727273 0.314921
vt 0.818182 0.314921
vt 0.772727 0.393651
vt 0.545455 0.314921
vt 0.636364 0.314921
vt 0.590909 0.393651
vt 0.363637 0.314921
vt 0.454546 0.314921
vt 0.409092 0.393651
vt 0.500000 0.393651
vt 0.454546 0.472382
vt 0.681818 0.393651
vt 0.636364 0.472382
vt 0.863636 0.393651
vt 0.818182 0.472382
vt 0.909091 0.314921
vt 0.136365 0.393651
vt 0.090910 0.472382
vt 0.318182 0.393651
vt 0.272728 0.472382
vt 0.954545 0.236191
vt 1.000000 0.157461
vt 0.409092 0.078731
vt 0.363637 0.000000
s 0
f 93/107/25 106/108/25 105/109/25
f 94/110/26 106/111/26 108/112/26
f 93/113/27 105/114/27 110/115/27
f 93/116/28 110/117/28 112/118/28
f 93/119/29 112/120/29 109/121/29
f 94/110/30 108/112/30 115/122/30
f 95/123/31 107/124/31 117/125/31
f 96/126/32 111/127/32 119/128/32
f 97/129/33 113/130/33 121/131/33
f 98/132/34 114/133/34 123/134/34
f 94/110/35 115/122/35 118/135/35
f 95/123/36 117/125/36 120/136/36
f 96/126/37 119/128/37 122/137/37
f 97/129/38 121/131/38 124/138/38
f 98/132/39 123/134/39 116/139/39
f 99/140/40 125/141/40 130/142/40
f 100/143/41 126/144/41 132/145/41
f 101/146/42 127/147/42 133/148/42
f 102/149/43 128/150/43 134/151/43
f 103/152/44 129/153/44 131/154/44
f 131/154/45 134/155/45 104/156/45
f 131/154/46 129/153/46 134/155/46
f 129/153/47 102/149/47 134/155/47
f 134/151/48 133/157/48 104/158/48
f 134/151/49 128/150/49 133/157/49
f 128/150/50 101/146/50 133/157/50
f 133/148/51 132/159/51 104/160/51
f 133/148/52 127/147/52 132/159/52
f 127/147/53 100/161/53 132/159/53
f 132/145/54 130/162/54 104/163/54
f 132/145/55 126/144/55 130/162/55
f 126/144/56 99/140/56 130/162/56
f 130/142/57 131/164/57 104/165/57
f 130/142/58 125/141/58 131/164/58
f 125/141/59 103/152/59 131/164/59
f 116/139/60 129/153/60 103/152/60
f 116/139/61 123/134/61 129/153/61
f 123/134/62 102/149/62 129/153/62
f 124/138/63 128/150/63 102/149/63
f 124/138/64 121/131/64 128/150/64
f 121/131/65 101/146/65 128/150/65
f 122/137/66 127/147/66 101/146/66
f 122/137/67 119/128/67 127/147/67
f 119/128/68 100/161/68 127/147/68
f 120/136/69 126/144/69 100/143/69
f 120/136/70 117/125/70 126/144/70
f 117/125/71 99/140/71 126/144/71
f 118/135/72 125/141/72 99/140/72
f 118/135/73 115/122/73 125/141/73
f 115/122/74 103/152/74 125/141/74
f 123/134/75 124/138/75 102/149/75
f 123/134/76 114/133/76 124/138/76
f 114/133/77 97/129/77 124/138/77
f 121/131/78 122/137/78 101/146/78
f 121/131/79 113/130/79 122/137/79
f 113/130/80 96/126/80 122/137/80
f 119/128/81 120/166/81 100/161/81
f 119/128/82 111/127/82 120/166/82
f 111/127/83 95/167/83 120/166/83
f 117/125/84 118/135/84 99/140/84
f 117/125/85 107/124/85 118/135/85
f 107/124/86 94/110/86 118/135/86
f 115/122/87 116/139/87 103/152/87
f 115/122/88 108/112/88 116/139/88
f 108/112/89 98/132/89 116/139/89
f 109/121/90 114/133/90 98/132/90
f 109/121/91 112/120/91 114/133/91
f 112/120/92 97/129/92 114/133/92
f 112/118/93 113/130/93 97/129/93
f 112/118/94 110/117/94 113/130/94
f 110/117/95 96/126/95 113/130/95
f 110/115/96 111/127/96 96/126/96
f 110/115/97 105/114/97 111/127/97
f 105/114/98 95/167/98 111/127/98
f 108/112/99 109/168/99 98/132/99
f 108/112/100 106/111/100 109/168/100
f 106/111/101 93/169/101 109/168/101
f 105/109/102 107/124/102 95/123/102
f 105/109/103 106/108/103 107/124/103
f 106/108/104 94/110/104 107/124/104
o Icosphere.001
v 1.928536 2.871708 -0.003140
v 3.009894 3.105660 0.734702
v 1.855511 3.689481 1.042993
v 1.238602 4.005102 -0.092044
v 2.011722 3.616332 -1.101820
v 3.106437 3.060452 -0.590853
v 2.988278 4.383668 1.101820
v 1.893563 4.939548 0.590853
v 1.990106 4.894340 -0.734702
v 3.144489 4.310519 -1.042993
v 3.761398 3.994898 0.092044
v 3.071464 5.128292 0.003140
v 1.785283 3.154288 0.611206
v 2.463807 2.811129 0.429998
v 2.420887 3.291802 1.044902
v 3.156160 2.922072 0.084552
v 2.520553 2.784556 -0.349138
v 1.422672 3.339806 -0.055948
v 1.379746 3.820481 0.558951
v 1.877100 3.111292 -0.649474
v 1.471564 3.777485 -0.701733
v 2.569452 3.222234 -0.994927
v 3.541142 3.471323 0.485948
v 3.597888 3.444751 -0.293191
v 2.408181 4.042996 1.260692
v 3.086713 3.699833 1.079486
v 1.402111 4.555250 0.293191
v 1.764721 4.369736 0.960355
v 1.913287 4.300167 -1.079486
v 1.458858 4.528677 -0.485948
v 3.235279 3.630264 -0.960355
v 2.591819 3.957004 -1.260692
v 3.528436 4.222515 0.701733
v 2.430548 4.777766 0.994927
v 1.843840 5.077928 -0.084552
v 2.579113 4.708198 -1.044902
v 3.620254 4.179519 -0.558951
v 3.122900 4.888708 0.649474
v 3.577328 4.660194 0.055948
v 2.479447 5.215444 0.349138
v 2.536193 5.188871 -0.429998
v 3.214717 4.845713 -0.611206
vn -0.3582 -0.8771 0.3199
vn 0.3042 -0.8967 0.3216
vn -0.6788 -0.7143 0.1703
vn -0.6505 -0.7276 -0.2179
vn -0.3124 -0.8986 -0.3082
vn 0.6359 -0.6934 0.3389
vn -0.1958 -0.2738 0.9416
vn -0.9632 0.1168 0.2420
vn -0.6058 -0.0613 -0.7932
vn 0.3825 -0.5620 -0.7333
vn 0.6145 -0.4539 0.6452
vn -0.3978 0.0581 0.9156
vn -0.9389 0.3349 -0.0798
vn -0.2608 -0.0060 -0.9654
vn 0.6992 -0.4935 -0.5173
vn 0.6170 0.4274 0.6608
vn -0.1624 0.8225 0.5451
vn -0.3042 0.8967 -0.3216
vn 0.3876 0.5475 -0.7416
vn 0.9569 0.2575 -0.1345
vn 0.6788 0.7143 -0.1703
vn 0.8216 0.4755 -0.3143
vn 0.7082 0.3847 -0.5920
vn 0.3582 0.8771 -0.3199
vn 0.2342 0.7738 -0.5885
vn -0.0777 0.7828 -0.6174
vn 0.1317 0.9910 -0.0242
vn -0.1807 0.9824 -0.0467
vn -0.3431 0.9149 0.2127
vn 0.3124 0.8986 0.3082
vn 0.1503 0.8131 0.5624
vn 0.2789 0.5984 0.7511
vn 0.6505 0.7276 0.2179
vn 0.7698 0.4998 0.3970
vn 0.9286 0.2707 0.2538
vn 0.9632 -0.1168 -0.2420
vn 0.8332 -0.2103 -0.5114
vn 0.7145 0.0104 -0.6995
vn 0.1958 0.2738 -0.9416
vn -0.1173 0.2724 -0.9550
vn -0.2696 0.5092 -0.8174
vn -0.6359 0.6934 -0.3389
vn -0.7886 0.6099 -0.0782
vn -0.6748 0.7116 0.1955
vn -0.3825 0.5620 0.7333
vn -0.2529 0.3359 0.9073
vn 0.0588 0.3380 0.9393
vn 0.6058 0.0613 0.7932
vn 0.7494 -0.1711 0.6396
vn 0.9175 -0.0954 0.3862
vn 0.3978 -0.0581 -0.9156
vn 0.2529 -0.3359 -0.9073
vn -0.0588 -0.3380 -0.9393
vn -0.6145 0.4539 -0.6452
vn -0.7494 0.1711 -0.6396
vn -0.9175 0.0954 -0.3862
vn -0.6992 0.4935 0.5173
vn -0.8332 0.2103 0.5114
vn -0.7145 -0.0104 0.6995
vn 0.2608 0.0060 0.9654
vn 0.1173 -0.2724 0.9550
vn 0.2696 -0.5092 0.8174
vn 0.9389 -0.3349 0.0798
vn 0.7886 -0.6099 0.0782
vn 0.6748 -0.7116 -0.1955
vn 0.1624 -0.8225 -0.5451
vn -0.1503 -0.8131 -0.5624
vn -0.2789 -0.5984 -0.7511
vn -0.6170 -0.4274 -0.6608
vn -0.7698 -0.4998 -0.3970
vn -0.9286 -0.2707 -0.2538
vn -0.9569 -0.2575 0.1345
vn -0.8216 -0.4755 0.3143
vn -0.7082 -0.3847 0.5920
vn 0.3431 -0.9149 -0.2127
vn 0.1807 -0.9824 0.0467
vn -0.1317 -0.9910 0.0242
vn -0.3876 -0.5475 0.7416
vn -0.2342 -0.7738 0.5885
vn 0.0777 -0.7828 0.6174
vt 0.181819 0.000000
vt 0.227273 0.078731
vt 0.136365 0.078731
vt 0.272728 0.157461
vt 0.318182 0.078731
vt 0.363637 0.157461
vt 0.909091 0.000000
vt 0.954545 0.078731
vt 0.863636 0.078731
vt 0.727273 0.000000
vt 0.772727 0.078731
vt 0.681818 0.078731
vt 0.545455 0.000000
vt 0.590909 0.078731
vt 0.500000 0.078731
vt 0.318182 0.236191
vt 0.090910 0.157461
vt 0.181819 0.157461
vt 0.136365 0.236191
vt 0.818182 0.157461
vt 0.909091 0.157461
vt 0.863636 0.236191
vt 0.636364 0.157461
vt 0.727273 0.157461
vt 0.681818 0.236191
vt 0.454546 0.157461
vt 0.545455 0.157461
vt 0.500000 0.236191
vt 0.227273 0.236191
vt 0.045455 0.236191
vt 0.772727 0.236191
vt 0.590909 0.236191
vt 0.409092 0.236191
vt 0.181819 0.314921
vt 0.272728 0.314921
vt 0.227273 0.393651
vt 0.000000 0.314921
vt 0.090910 0.314921
vt 0.045455 0.393651
vt 0.727273 0.314921
vt 0.818182 0.314921
vt 0.772727 0.393651
vt 0.545455 0.314921
vt 0.636364 0.314921
vt 0.590909 0.393651
vt 0.363637 0.314921
vt 0.454546 0.314921
vt 0.409092 0.393651
vt 0.500000 0.393651
vt 0.454546 0.472382
vt 0.681818 0.393651
vt 0.636364 0.472382
vt 0.863636 0.393651
vt 0.818182 0.472382
vt 0.909091 0.314921
vt 0.136365 0.393651
vt 0.090910 0.472382
vt 0.318182 0.393651
vt 0.272728 0.472382
vt 0.954545 0.236191
vt 1.000000 0.157461
vt 0.409092 0.078731
vt 0.363637 0.000000
s 0
f 135/170/105 148/171/105 147/172/105
f 136/173/106 148/174/106 150/175/106
f 135/176/107 147/177/107 152/178/107
f 135/179/108 152/180/108 154/181/108
f 135/182/109 154/183/109 151/184/109
f 136/173/110 150/175/110 157/185/110
f 137/186/111 149/187/111 159/188/111
f 138/189/112 153/190/112 161/191/112
f 139/192/113 155/193/113 163/194/113
f 140/195/114 156/196/114 165/197/114
f 136/173/115 157/185/115 160/198/115
f 137/186/116 159/188/116 162/199/116
f 138/189/117 161/191/117 164/200/117
f 139/192/118 163/194/118 166/201/118
f 140/195/119 165/197/119 158/202/119
f 141/203/120 167/204/120 172/205/120
f 142/206/121 168/207/121 174/208/121
f 143/209/122 169/210/122 175/211/122
f 144/212/123 170/213/123 176/214/123
f 145/215/124 171/216/124 173/217/124
f 173/217/125 176/218/125 146/219/125
f 173/217/126 171/216/126 176/218/126
f 171/216/127 144/212/127 176/218/127
f 176/214/128 175/220/128 146/221/128
f 176/214/129 170/213/129 175/220/129
f 170/213/130 143/209/130 175/220/130
f 175/211/131 174/222/131 146/223/131
f 175/211/132 169/210/132 174/222/132
f 169/210/133 142/224/133 174/222/133
f 174/208/134 172/225/134 146/226/134
f 174/208/135 168/207/135 172/225/135
f 168/207/136 141/203/136 172/225/136
f 172/205/137 173/227/137 146/228/137
f 172/205/138 167/204/138 173/227/138
f 167/204/139 145/215/139 173/227/139
f 158/202/140 171/216/140 145/215/140
f 158/202/141 165/197/141 171/216/141
f 165/197/142 144/212/142 171/216/142
f 166/201/143 170/213/143 144/212/143
f 166/201/144 163/194/144 170/213/144
f 163/194/145 143/209/145 170/213/145
f 164/200/146 169/210/146 143/209/146
f 164/200/147 161/191/147 169/210/147
f 161/191/148 142/224/148 169/210/148
f 162/199/149 168/207/149 142/206/149
f 162/199/150 159/188/150 168/207/150
f 159/188/151 141/203/151 168/207/151
f 160/198/152 167/204/152 141/203/152
f 160/198/153 157/185/153 167/204/153
f 157/185/154 145/215/154 167/204/154
f 165/197/155 166/201/155 144/212/155
f 165/197/156 156/196/156 166/201/156
f 156/196/157 139/192/157 166/201/157
f 163/194/158 164/200/158 143/209/158
f 163/194/159 155/193/159 164/200/159
f 155/193/160 138/189/160 164/200/160
f 161/191/161 162/229/161 142/224/161
f 161/191/162 153/190/162 162/229/162
f 153/190/163 137/230/163 162/229/163
f 159/188/164 160/198/164 141/203/164
f 159/188/165 149/187/165 160/198/165
f 149/187/166 136/173/166 160/198/166
f 157/185/167 158/202/167 145/215/167
f 157/185/168 150/175/168 158/202/168
f 150/175/169 140/195/169 158/202/169
f 151/184/170 156/196/170 140/195/170
f 151/184/171 154/183/171 156/196/171
f 154/183/172 139/192/172 156/196/172
f 154/181/173 155/193/173 139/192/173
f 154/181/174 152/180/174 155/193/174
f 152/180/175 138/189/175 155/193/175
f 152/178/176 153/190/176 138/189/176
f 152/178/177 147/177/177 153/190/177
f 147/177/178 137/230/178 153/190/178
f 150/175/179 151/231/179 140/195/179
f 150/175/180 148/174/180 151/231/180
f 148/174/181 135/232/181 151/231/181
f 147/172/182 149/187/182 137/186/182
f 147/172/183 148/171/183 149/187/183
f 148/171/184 136/173/184 149/187/184
